<mxfile host="app.diagrams.net" agent="Mozilla/5.0 (Macintosh; Intel Mac OS X 10_15_7) AppleWebKit/537.36 (KHTML, like Gecko) Chrome/132.0.0.0 Safari/537.36" version="26.0.15">
  <diagram name="Page-1" id="R_-HxufMXU2KZL2qzMM3">
    <mxGraphModel dx="2195" dy="920" grid="1" gridSize="10" guides="1" tooltips="1" connect="1" arrows="1" fold="1" page="1" pageScale="1" pageWidth="827" pageHeight="1169" math="0" shadow="0">
      <root>
        <mxCell id="0" />
        <mxCell id="1" parent="0" />
        <mxCell id="9imsYksPvWUquA6H1-_u-5" style="edgeStyle=orthogonalEdgeStyle;rounded=0;orthogonalLoop=1;jettySize=auto;html=1;strokeWidth=2;" edge="1" parent="1" source="9imsYksPvWUquA6H1-_u-3" target="9imsYksPvWUquA6H1-_u-4">
          <mxGeometry relative="1" as="geometry" />
        </mxCell>
        <mxCell id="9imsYksPvWUquA6H1-_u-6" value="Stores video to Object Storage" style="edgeLabel;html=1;align=center;verticalAlign=middle;resizable=0;points=[];fontSize=16;" vertex="1" connectable="0" parent="9imsYksPvWUquA6H1-_u-5">
          <mxGeometry x="0.0188" y="-4" relative="1" as="geometry">
            <mxPoint y="4" as="offset" />
          </mxGeometry>
        </mxCell>
        <mxCell id="9imsYksPvWUquA6H1-_u-10" style="edgeStyle=orthogonalEdgeStyle;rounded=0;orthogonalLoop=1;jettySize=auto;html=1;strokeColor=default;dashed=1;strokeWidth=2;" edge="1" parent="1" source="9imsYksPvWUquA6H1-_u-3" target="9imsYksPvWUquA6H1-_u-9">
          <mxGeometry relative="1" as="geometry" />
        </mxCell>
        <mxCell id="9imsYksPvWUquA6H1-_u-3" value="&lt;div&gt;&lt;b&gt;Video Uploader Service&lt;/b&gt;&lt;/div&gt;&lt;div&gt;Accepts video uploads.&lt;b&gt;&lt;/b&gt;&lt;/div&gt;" style="rounded=1;whiteSpace=wrap;html=1;" vertex="1" parent="1">
          <mxGeometry x="70" y="300" width="220" height="160" as="geometry" />
        </mxCell>
        <mxCell id="9imsYksPvWUquA6H1-_u-4" value="Amazon S3" style="sketch=0;outlineConnect=0;fontColor=#232F3E;gradientColor=none;strokeColor=#ffffff;fillColor=#232F3E;dashed=0;verticalLabelPosition=middle;verticalAlign=bottom;align=center;html=1;whiteSpace=wrap;fontSize=10;fontStyle=1;spacing=3;shape=mxgraph.aws4.productIcon;prIcon=mxgraph.aws4.s3;" vertex="1" parent="1">
          <mxGeometry x="-310" y="330" width="80" height="100" as="geometry" />
        </mxCell>
        <mxCell id="9imsYksPvWUquA6H1-_u-13" style="edgeStyle=orthogonalEdgeStyle;rounded=0;orthogonalLoop=1;jettySize=auto;html=1;strokeWidth=2;dashed=1;" edge="1" parent="1" source="9imsYksPvWUquA6H1-_u-7" target="9imsYksPvWUquA6H1-_u-12">
          <mxGeometry relative="1" as="geometry" />
        </mxCell>
        <mxCell id="9imsYksPvWUquA6H1-_u-71" style="edgeStyle=orthogonalEdgeStyle;rounded=0;orthogonalLoop=1;jettySize=auto;html=1;" edge="1" parent="1" source="9imsYksPvWUquA6H1-_u-7" target="9imsYksPvWUquA6H1-_u-4">
          <mxGeometry relative="1" as="geometry" />
        </mxCell>
        <mxCell id="9imsYksPvWUquA6H1-_u-7" value="&lt;div&gt;&lt;b&gt;Transcoder Service&lt;/b&gt;&lt;/div&gt;&lt;div&gt;&lt;div&gt;Processes / Transcodes Videos into various formats.&lt;/div&gt;&lt;/div&gt;" style="rounded=1;whiteSpace=wrap;html=1;" vertex="1" parent="1">
          <mxGeometry x="70" y="760" width="220" height="160" as="geometry" />
        </mxCell>
        <mxCell id="9imsYksPvWUquA6H1-_u-11" style="edgeStyle=orthogonalEdgeStyle;rounded=0;orthogonalLoop=1;jettySize=auto;html=1;strokeWidth=2;dashed=1;" edge="1" parent="1" source="9imsYksPvWUquA6H1-_u-9" target="9imsYksPvWUquA6H1-_u-7">
          <mxGeometry relative="1" as="geometry" />
        </mxCell>
        <mxCell id="9imsYksPvWUquA6H1-_u-9" value="video.uploaded" style="shape=process;whiteSpace=wrap;html=1;backgroundOutline=1;" vertex="1" parent="1">
          <mxGeometry x="55" y="584.5" width="250" height="60" as="geometry" />
        </mxCell>
        <mxCell id="9imsYksPvWUquA6H1-_u-19" style="edgeStyle=orthogonalEdgeStyle;rounded=0;orthogonalLoop=1;jettySize=auto;html=1;strokeWidth=2;dashed=1;" edge="1" parent="1" source="9imsYksPvWUquA6H1-_u-12" target="9imsYksPvWUquA6H1-_u-14">
          <mxGeometry relative="1" as="geometry">
            <Array as="points">
              <mxPoint x="180" y="1170" />
              <mxPoint x="-150" y="1170" />
            </Array>
          </mxGeometry>
        </mxCell>
        <mxCell id="9imsYksPvWUquA6H1-_u-20" style="edgeStyle=orthogonalEdgeStyle;rounded=0;orthogonalLoop=1;jettySize=auto;html=1;strokeWidth=2;dashed=1;" edge="1" parent="1" source="9imsYksPvWUquA6H1-_u-12" target="9imsYksPvWUquA6H1-_u-17">
          <mxGeometry relative="1" as="geometry" />
        </mxCell>
        <mxCell id="9imsYksPvWUquA6H1-_u-21" style="edgeStyle=orthogonalEdgeStyle;rounded=0;orthogonalLoop=1;jettySize=auto;html=1;strokeWidth=2;dashed=1;" edge="1" parent="1" source="9imsYksPvWUquA6H1-_u-12" target="9imsYksPvWUquA6H1-_u-18">
          <mxGeometry relative="1" as="geometry">
            <Array as="points">
              <mxPoint x="180" y="1170" />
              <mxPoint x="500" y="1170" />
            </Array>
          </mxGeometry>
        </mxCell>
        <mxCell id="9imsYksPvWUquA6H1-_u-12" value="video.transcoding" style="shape=process;whiteSpace=wrap;html=1;backgroundOutline=1;" vertex="1" parent="1">
          <mxGeometry x="55" y="1040" width="250" height="60" as="geometry" />
        </mxCell>
        <mxCell id="9imsYksPvWUquA6H1-_u-25" style="edgeStyle=orthogonalEdgeStyle;rounded=0;orthogonalLoop=1;jettySize=auto;html=1;" edge="1" parent="1" source="9imsYksPvWUquA6H1-_u-14" target="9imsYksPvWUquA6H1-_u-24">
          <mxGeometry relative="1" as="geometry" />
        </mxCell>
        <mxCell id="9imsYksPvWUquA6H1-_u-27" value="Speech to text" style="edgeLabel;html=1;align=center;verticalAlign=middle;resizable=0;points=[];fontSize=13;" vertex="1" connectable="0" parent="9imsYksPvWUquA6H1-_u-25">
          <mxGeometry x="0.2042" y="-1" relative="1" as="geometry">
            <mxPoint x="18" as="offset" />
          </mxGeometry>
        </mxCell>
        <mxCell id="9imsYksPvWUquA6H1-_u-38" style="edgeStyle=orthogonalEdgeStyle;rounded=0;orthogonalLoop=1;jettySize=auto;html=1;strokeWidth=2;dashed=1;" edge="1" parent="1" source="9imsYksPvWUquA6H1-_u-14" target="9imsYksPvWUquA6H1-_u-36">
          <mxGeometry relative="1" as="geometry">
            <Array as="points">
              <mxPoint x="-150" y="1500" />
              <mxPoint x="-150" y="1500" />
            </Array>
          </mxGeometry>
        </mxCell>
        <mxCell id="9imsYksPvWUquA6H1-_u-14" value="&lt;div&gt;&lt;b&gt;Subtitles Service&lt;/b&gt;&lt;/div&gt;&lt;div&gt;&lt;div&gt;Generates subtitles&amp;nbsp;&lt;/div&gt;&lt;/div&gt;" style="rounded=1;whiteSpace=wrap;html=1;" vertex="1" parent="1">
          <mxGeometry x="-260" y="1250" width="220" height="160" as="geometry" />
        </mxCell>
        <mxCell id="9imsYksPvWUquA6H1-_u-29" style="edgeStyle=orthogonalEdgeStyle;rounded=0;orthogonalLoop=1;jettySize=auto;html=1;entryX=0;entryY=0.5;entryDx=0;entryDy=0;" edge="1" parent="1" source="9imsYksPvWUquA6H1-_u-17" target="9imsYksPvWUquA6H1-_u-28">
          <mxGeometry relative="1" as="geometry" />
        </mxCell>
        <mxCell id="9imsYksPvWUquA6H1-_u-31" value="Write Data" style="edgeLabel;html=1;align=center;verticalAlign=middle;resizable=0;points=[];fontSize=13;" vertex="1" connectable="0" parent="9imsYksPvWUquA6H1-_u-29">
          <mxGeometry x="-0.434" y="-2" relative="1" as="geometry">
            <mxPoint as="offset" />
          </mxGeometry>
        </mxCell>
        <mxCell id="9imsYksPvWUquA6H1-_u-48" style="edgeStyle=orthogonalEdgeStyle;rounded=0;orthogonalLoop=1;jettySize=auto;html=1;entryX=0;entryY=0.5;entryDx=0;entryDy=0;" edge="1" parent="1" source="9imsYksPvWUquA6H1-_u-17" target="9imsYksPvWUquA6H1-_u-47">
          <mxGeometry relative="1" as="geometry" />
        </mxCell>
        <mxCell id="9imsYksPvWUquA6H1-_u-17" value="&lt;div&gt;&lt;b&gt;Transcoded Storage Service&lt;/b&gt;&lt;/div&gt;&lt;div&gt;Stores Actual Video Files&lt;/div&gt;" style="rounded=1;whiteSpace=wrap;html=1;" vertex="1" parent="1">
          <mxGeometry x="70" y="1250" width="220" height="160" as="geometry" />
        </mxCell>
        <mxCell id="9imsYksPvWUquA6H1-_u-18" value="&lt;div&gt;&lt;span style=&quot;background-color: transparent; color: light-dark(rgb(0, 0, 0), rgb(255, 255, 255));&quot;&gt;&lt;b&gt;Streaming&lt;/b&gt;&lt;/span&gt;&lt;b&gt;&amp;nbsp;Service&lt;/b&gt;&lt;/div&gt;&lt;div&gt;&lt;span data-end=&quot;2187&quot; data-start=&quot;2167&quot;&gt;Handles Requests&lt;/span&gt; for video playback.&lt;/div&gt;" style="rounded=1;whiteSpace=wrap;html=1;" vertex="1" parent="1">
          <mxGeometry x="390" y="1250" width="220" height="160" as="geometry" />
        </mxCell>
        <mxCell id="9imsYksPvWUquA6H1-_u-24" value="" style="shape=image;verticalLabelPosition=bottom;labelBackgroundColor=default;verticalAlign=top;aspect=fixed;imageAspect=0;image=data:image/jpeg,/9j/4AAQSkZJRgABAQAAAQABAAD/2wBDAAYEBAQFBAYFBQYJBgUGCQsIBgYICwwKCgsKCgwQDAwMDAwMEAwMDAwMDAwMDAwMDAwMDAwMDAwMDAwMDAwMDAz/2wBDAQcHBw0MDRgQEBgUDg4OFBQODg4OFBEMDAwMDBERDAwMDAwMEQwMDAwMDAwMDAwMDAwMDAwMDAwMDAwMDAwMDAz/wgARCAIcA0wDAREAAhEBAxEB/8QAGwABAAIDAQEAAAAAAAAAAAAAAAYFBwQDAgH/xAAaAQEAAgMBAAAAAAAAAAAAAAAAAQUCBgQD/9oADAMBAAIQAxAAAAHzlpoAAAAAAAAAAAAAAAAAAAAAAAAAAAAAAAAAAAAAAAAAAAAAAAAAAAAAAAAAAAAAAAAAAAAAAAAAAAAAAAAAAAAAAAAAAAAAAAAAAAAAAAAAAAAAAAAAAAAAAAAAAAAAAAAAAAAAAAAAAAAAAAAAAAAAAAAAAAAAAAAAAAAAAAAAAAAAAAAAAAAAAAAAAAAAAAAAAAAAAAAAAAAAAAAAAAAAAAAAAAAAAAAAAAAAAAAAAAAAAAAAAAAAAAAAAAAAAAAAAAAAAAAAAAAAAAAAAAAAAAAAAAAAAAAAAAAAAAAAAAAAAAAAAAAAAAAAAAAAAAAAAAAAAAAAAAAAAAAAAAAAAAAAAAAAAAAAAAAAAAAAAAAAAAAAAAAAAAAAAAAAAAAAAAAAAAAAAAAAAAAAAAAAAAAAAAAAAAAAAAAAAAAAAAAAAAAAAAAAAAAAAAAAAAAAAAAAAAAAAAAAAAAAAAAAAAAAAAAAAAAAAAAAAAAAAAAAAAAAAAAAAAAAAAAAAAAAAAAAAAAAAAAAAAAAAAAAAAAAAAAAAAAAAAAAAAAAAAAAAAAAAAAAAAAAAAAAAAAAAAAAAAAAAAAAAAAAAAAAAAAAAAAAAAAAAAAAAAAAAAAAAAAAAAAAAAAAAAAAAAAAAAAAAAAAAAAAAAAAAAAAAAAAAAAAAAAAAAAAAAAAAAAAAAAAAAAAAAAAAAAAAAAAAAAAAAAAAAAAAAAAAAAAAAAAAAAAAAAAAAAAAAAAAAAAAAAAAAAAAAAAAAAAAAAAAAAAAAAAAAAAAAAAAAAAAAAAAAAAAAAAAAAAAAAAAAAAAAAAAAAAAAAAAAAAAAAAAAAAAAAAAAAAAAAAAAAAAAAAAAAAAAAAAAAAAAAAAAAAAAAAAAAAAAAAAAAAAAAAAAAAAAAAAAAAAAAAAAAAAAAAAAAAAAAAAAAAAAAAAAAAAAAAAAAAAAAAAAAAAAAAAAHplfRYXMd+49xqvGnnhoJrebEAAAAAAAAAAAAAAAAAAAAAAAAAAAAAAAAAAAAAAAAAAAAAAAC2jtm0X+09gABrvKFTQU08IAAAAAAAAAAAAAAAAAAAAAAAAAAAAAAAAAAAAAAAAAAAAAAF1HfO42L6mocMamqrp5fhvx0yOLO8WPxEbmq+p+I03hSzw6jwAAAAAAAAAAAAAAAAAAAAAAAAAAAAAAAAAAAAAAAAAAAA2XrkjHaurOHzRxmakACxdU7x2LaewABFDNdDpo+DzAAAAAAAAAAAAAAAAAAAAAAAAAAAAAAAAAAAAAAAAAAAmUXski1jk1UMmiAGw9ZbF1IYsidN4UE1ug5vSbJ1SCLPs9NV44+y1nUeIAAAAAAAAAAAAAAAAAAAAAAAAAAAAAAAAAAAAAAAAAuI7pCs7uO/6nGWWpa7zHpMmi2lUXHRnyecTmnjc1XxAA6s5vjf3Sw0HNjrLV/KAAAAAAAAAAAAAAAAAAAAAAAAAAAAAAAAAAAAAAAAOrOb47BdO8CucuOstXFxHdMovdx7/ER2auJTTcXmAAB6TkHHZrN1w6aKNTVAAAAAAAAAAAAAAAAAAAAAAAAAAAAAAAAAAAAAAAD2yyDjstk69R4R6a2WRc0zggWWuDJWO17j3qXFDsqPQcwEgizlsXOq8YdlSVrkAsnXkTHZ9BzY4y1YAAAAAAAAAAAAAAAAAAAAAAAAAAAAAAAAAAAAAAAS6LuURb1zlgGWtbL2yPjtNM4IFlrgyZjtlJNfDpowLN1zHG8snVqvLaexEfmtiU0us8hk3HbNl7Yuy1DkwAAAAAAAAAAAAAAAAAAAAAAAAAAAAAAAAAAAAAAHZnk3HbfpjbLVtR4WDpyNjtNM4IFlrgyZjtkbmqi81G09pdF1fRZVTjh+VHXuaRxaSyLns9ObCLTURmamf47JaOzGuWqabwAAAAAAAAAAAAAAAAAAAAAAAAAAAAAAAAAAAAAAF/FlN42Chmtg86+LB05Gx2mmcECy1wZMx2yPTWfESmLj6ekxeaiKzUc2A7PSVxcSSLX6nUeHRl3euL8tR4vMAbT2+I1nkOrPsz1Xl8R6TsvXiw5MMj47TWuWFZUAAG/HTkONmjs1kPmjAAAAAAAAAAAAAAAAAAAAAAAAAEti6lMXEMmhjk1YsHTkbHaaZwQLLXBkzHbNp682MWmojU1MgizlsXPhETmlj01vxA3nRMMby4dw1XjjPLUwAMm47b9TjHLURNMb6RLTHs6zVzx3Md89jY4XNDHZq8rY7lVOLH2WtAAbroyBjssemsic0oAAAAAAAAAAAAAAAAAAAAAAAAAmEXcmi3hM6/H5rRYOnI2O00zggWWuDJmO2aLnhOVBrvIDu9JpjfXawr3LDpo6qeMC+ixmsX/tlBJ12kmvAE8x2O6d+L8tR4vPJGO1bzoiM0sXmnk8W8vi7x3OsVs8mVsdyqXFj/LWth68WHliAAAO718o5PMAAbD14PP4gAfU7L113n5YgADYevFh5YgAAAAAAAAAACTRbTCLyLzTxGaUWDpyNjtNM4IFlrgyXjtccmri81AAEhizmcXtW5LZ20SuiGVJqvEXkWE6jYtZ440y1TygCVxdSuLjHs6zpT4ZPx23WeVe5YFlrk1xv5AssW5ah4Y5Wx3KucvlFm6+TDH863XTybb2yXjtkfmshM0HZ6TzHY7R1iocUEy13mwytjuVK4N10br34POCzrtVPGLyLGZxe93pzYQ2aOPzWDJmO2VLj6MrxYQWdeo5rgAAAAAAAAAABvunI+O06rwxrlqvlHVnkTHZ9t7RiamLTUZHx2iNzVxiagACQxZzGLzFuWoXcWEyi87PTHOWraTwGQMdltnbA51ylngAu4sJ3GxQuaHg851GwxpVSBZ4vy1DIeOz9WeN8tVGVsdyEamq+Ik0W1ArYRlr+29sl47ZH5rITNBKYuJbF1DJotZ5WDpis0wytjuXlEVmm5sZfF3qvHGmWqb0dOR42iocUZmpkEWd4sMaZanrPLJmO2bL1r3NRTXx+azXeQAAAAAAAAAAAGQcdltXbF5qIjNIPSZLFtKouPDHoyik08YmoAAkMWcxi9xblp4m8bBfxZQCdaqJ4hI4tJnF9GJqIhNIBtPfJmO1xman4i4juic007jYsbzquQ42emcMHy14ZWx3KrcePctZ9JypjuNS4sf5a1tvbJeO2R+ayEzQSOLWZxe0jgi809ZPIBlbHcqpxY+y1oT7HZLh3Y1y1SQxaSmLeHTR6zy2XrMYvINOvUU12TMds7M8Z5apxeYAAAAAAAAAAAAG86Mi47R7ZRqamIzS+GI7vSWxdSGLPRc8LyoaxyAb7pmeN7YOnFuWoCbxsF/FlAJ1qoniFxHdPo2Shmtg86+AMoY7dVuTqz0nPE8qbJ2O2w+aSYRdxGaWLzTjK2O5VTix9lrQytjuVU4sfZa1tvbJeO2R+ayEzQfUyqLiTRbdWdK4IJlrvxGVsdyqnFj7LWhN8dgv1ljmdXkq1kMWes8fgBDpo6Sa/JmO2DGeWpgAAAAAAAAAAAAAZIx2nedI1njEZpaCa0CxdUwxu7V2UE10YmokkWshiz5sfScWZaeJvGwX8WUAnWqieIX0WU4jYI5NXDJoQBkDHZdl7bD0h80cemsyXjtmu8rN1wGdbp54RlbHcqpxY+y1oZWx3KqcWPsta23tkvHbI/NZCZoPSfJ7TMsb2QrPH861UzxZWx3KqcePstZ+pyRjtO498XZajJYtZbF1A51ylngAAyZjtgxnlqYAAAAAAAAAAAAA9JynjuHFhWOS6d4rHJDsqOtcgF9FjN42D6nXeURml9JmMXmLMtPE3jYL+LKATrdRPCJtF/IIs4XNDHZqwBL4u5PFuMbTqulPPN8dgv1kMY5alrvIZWx3KqcWPstaGVsdyqnFj7LWtt7ZLx2yPzWQmaCZ431i6qSa+5jvs3VjXLVdR4ZWx3IijcHZ6WzsjqsheVBsPXI+O0+kx6az4jbj3guWujJmO2DGeWpgAAAAAAAAAAAADqzyjjt+m58a5arbx3TGLvedJEfmtiU0tjHVMIu9p7RmaqKzT82EhizmUXuLMtPE3jYL+LKATrdRPDuvfI+O0/DGeWp8HmALiO6Uxb+EQHLWxeRYyWLTkxgeWuAZBx2Wvnmh00YyDjstfPNDpo9h6znHYKaeGLzUWcdcni3sHTwecYmoo5rxlbHcq5y6jx33RTzxRCaTyxG46JZjc2Tq5MKOa+LzUfETmNhEGnXgAAAAAAAAAAAAAMpY7f6Ti7LUfDH6mSRaSuLns9PiPqaRXxDKk03gPqZlF5IIs8WZaeJvGwX8WUAnW9GefIGOybrois00TmmAAAAAAAAAAAAAAAAGVsdyqnFj7LWgAAAAAAAAAAAAAAAAAAAABPMdjunfCZoI/NYB2eksi5346YrNNUTxAXEd0wi83nRweWMMtSE3jYL+LKimut47ez0qHDAstc8oAAAAAAAAAAAAAAAAGVsdyqnFj7LWgAAAAAAAAAAAAAAAAAAAABcR3T6Nk13ljnLV9d5AAAbromGN3cu8VjkhuVFXOUZBx2W1doIjk1kOmj8sQAAAAAAAAAAAAAAAAJBFnrvKnnhAAAAAAAAAAAAAAAAAAAAAAnMbDexY6bng2Wv1zlAHVnK4uJLFt9TrPGITSUM1wHd6ZNx2z4Rmamgmt0XOAAAAAAAAAAAAAAAAAAAAAAAAAAAAAAAAAAAAAAAAAPbKeY7Fbu4ipcdXPJ4Y7zouo7+rPwxi81EXmo8MQBNov5BFnHJqoZNEAAAAAAAAAAAAAAAAAAAAAAAAAAAAAAAAAAAAAAAAAAB9TJotpRFv3egAHB548y1jTeAA+plsXUoi34vPG+Wra7yAAAAAAAAAAAAAAAAAAAAAAAAAAAAAAAAAAAAAAAAAAAA9JtI7N50ek8mEvi77PTTc8dmsr3N8RYOmQxabzo8MYDOt1U8YAAAAAAAAAAAAAAAAAAAAAAAAAAAAAAAAAAAAAAAAAAAAAAG295tjfWrtAAFa5IVlQ6DmAAAAAAAAAAAAAAAAAAAAAAAAAAAAAAAAAAAAAAAAAAAAAAAAFm67mO7ddA03hTuGqnjAAAAAAAAAAAAAAAAAAAAAAAAAAAAAAAAAAAAAAAAAAAAAAAAAAAAAAAAAAAAAAAAAAAAAAAAAAAAAAAAAAAAAAAAAAAAAAAAAAAAAAAAAAAAAAAAAAAAAAAAAAAAAAAAAAAAAAAAAAAAAAAAAAAAAAAAAAAAAAAAAAAAAAAAAAAAAAAAAAAAAAAAAAAAAAAAAAAAAAAAAAAAAAAAAAAAAAAAAAAAAAAAAAAAAAAAAAAAAAAAAAAAAAAAAAAAAAAAAAAAAAAAAAAAAAAAAAAAAAAAAAAAAAAAAAAAAAAAAAAAAAAAAAAAAAAAAAAAAAAAAAAAAAAAAAAAAAAAAAAAAAAAAAAAAAAAAAAAAAAAAAAAAAAAAAAAAAAAAAAAAAAAAAAAAAAAAAAAAAAAAAAAAAAAAAAAAAAAAAAAAAAAAAAAAAAAAAAAAAAAAAAAAAAAAAAAAAAAAAAAAAAAAAAAAAAAAAAAAAAAAAAAAAAAAAAAAAAAAAAAAAAAAAAAAAAAAAAAAAAAAAAAAAAAAAAAAAAAAAAAAAAAAAAAAAAAAAAAAAAAAAAAAAAAAAAAAAAAAAAAAAAAAAAAAAAAAAAAAAAAAAAAAAAAAAAAAAAAAAAAAAAAAAAAAAAAAAAAAAAAAAAAAAAAAAAAAAAAAAAAAAAAAAAAAAAAAAAAAAAAAAAAAAAAAAAAAAAAAAAAAAAAAAAAAAAAAAAAAAAAAAAAAAAAAAAAAAAAAAAAAAAAAAAAAAAAAAAAAAAAAAAAAAAAAAAAAAAAAAAAAAAAAAAAAAAAAAAAAAAAAAAAAAAAAAAAAAAAAAAAAAAAAAAAAAAAAAAAAAAAAAAAAAAAAAAAAAAAAAAAAAAAAAAAAAAAAAAAAAAAAAAAAAAAAAAAAAAAAAAAAAAAAAAAAAAAAAAAAAAAAAAAAAAAAAAAAAAAAAAAAAAAAAAAAAAAAAAAAAAAAAAAAAAAAAAAAAAAAAAAAAAAAAAAAAAAAAAAAAAAAAAAAAAAAAAAAAAAAAAAAAAAAAAAAAAAAAAAAAAAAAAAAAAAAAAAAAAAAAAAAAAAAAAAAAAAAAAAAAAAAAAAAAAAAAAAAAAAAAAAAAAAAAAAAAAAAAAAAAAAAAAAAAAAAAAAAAAAAAAAAAAAAAAAAA//EAC4QAAEFAAIBAwMEAgIDAQAAAAMEAgEFABA0EiATERRgFTIiQFAjMyQxITCgsP/aAAgBAQABBQL/AO4lrXOkFMofmU6Ru/HIt+PRZ9QjdjUpm543jd9woq8qnJ0oQN9Rk4jNW1pE/wBwVyCVDobDYyqzTgxrZW/SpUToUqIwrVYzJrYBeJiJglIOSRRh00YcSkLGMkUB+2k4HHMMbRj1haS6fSmQHUZMD2BepVUhJjBIF/2vTJ/EWt1ng30BAUzktQIe/wCuDq04MW803CzNuVcYN2ycIwitylMJQNSmInL9qJ6tSbCp0rc1rWNmYiDlkpuGtc6UtNM4YxjbilGJqq4e7TMzPoGUgnILFqjhalaoC5std9oiE8r0dYIHosH+KPhFXEUZOkACNMxEKrgbMUxSu9cTLZr1f1AdcpvF/wBoNa57kKNiYeUKgp2itTGV636XCOIhLlVkAGUrTqJ5S1BSYKYIWqa9OeFSBQn9Feo9lTlwvdS/aFOk+G5asYmGUpCvQdzW/S4SdW5UFHHKWvOoyVABPpn4wlScruFVQImOnMB3CZ/uJ8VviX7OCOSFYyGMc6GtVKHHNkHc1v0uEnVvP14CYx3JakIuFViAGUrjqNEzEpbh7cIwitzxsI1VTTnMcx1Z0cs7f2dTD8lWuDeCbhB3Nb9LhJ1bprnFSU2YxjG+TfnKqaJxBkG7gRiCcluGO0TExlCUJ2gDARYzvI3o+kVZyZQ2OGCKTfSKtMTE5rXOn6RVniKPj6BHrFImGj9KFPB1LBjY23Rj9r+0o4/brt3+fhB3Nb9LhJ1cQjBtVXM6SPc5JcPbhFGVpgCM1VUFZpj45TLDp5S2YD8qnyxP6Uz/ADTqGeYOKQfwDWY/BZqlnkt12/5UcWnQ9KNR7ChilO9tquE4X9pR/wCvXUf8rhB3Nb9LhL1rBdKaDHKZ3IjFE6vsfqeFKECjKq44PQitCCzHte3WaL2Ceiof5I8ZngbIh+2k14P92o2f5NYv81vFr0dCdRMOa5s/+hoDuzglZ6/plGmJifRETM/Sqc5rmz6oTKJhzXNn+RRv/wAuvB/t4QdzW/S4SdW8/X6aTsun4alsk5+FVSEuOmMB3FYt9kmUgacLmy13NG/izZ4rQD9w2CX3NbD80epWfCaZ+Ie7yfwvC8ydLXgBGKIZWrkkpjZJ2td9XBE8pEteAEcKaxMbEZ4E4sELlL06NOCMYAjNXoXJn8IK1x8IAQxiDGRthW+zHCTq3LJcnQ1owxrh/ks/kITeyqyoHvAc2WzhEkZEywKhrmtc1VTROIN43JOrefr9NJ2Sf68ltThydQM43sa9qwEBU8Vij3kutxeCvmof4rNds+FFQPyVzPxFMXykzPcFq1niiXP8EnoU3LWuSW8kLrkfklyTta76uoxx5ZdZqPfFbK2Srt2vT8uc1rVF1PyC6J5RMTCsEHT5En+oURENhfYNTabZd819l9RLmw6FAvZPknVmInK1wU0fnH/KgvvG/k1qn30+tUMu5a5zZSXDowyjI0ycJmjZDGXn6/TSdkn6OKXq6173FIT4Prxn+PlK/wAFOvG/46Nn7F5PBHTk8VmXM8FYW+Arl/wl5tJmEObPxOtejkna131dSnhpcsqxnceuVB9Np0OKl/kjyxviqox/tymtWmP+HWZNWLBKNct+FmSdUj4YMpXFJ/LRqnJzMe17MtqYfnsex3ATlC5JbjfomJytEJS1VXnT+hMiOolGgGmxP9fFL1da97ipn/m656noC/zDbt+UVWzwRXZPgCcntn1mH5sNeP8A3c2nQ5tOhkna131dEzEpLj/wMwixltaMzZiYni06HFLH/Ey/uUnW0qk0T9Wl31aXfVpdblYRVknVV9X+ahH7aTg6YJ2qqkw/QmXHT5LYgPwrqRE30Cv3UtONmiIiIKOSE/RxS9XWve4pmfKrXbvgHoqn+SJa3ySCZ4CuifKnJCe4mVB81Gtn+S3m06HNp0Mk7Wu+rmtc6c17mTVryH4tGQ1bxadHf95ED2UzphsEf5koy/u1qmkSn0pOqr6v8xsfLo/6OT2wpbQBuVVenUZUgUJ/Qjs1LJifmMZQELVVuUmpey/9HFL1da97imB4A10XyP6KN/7OFpPcV6mJ5JeFD/M/Np0ObToZJ2td9XVKLwYpr06jTRu+USBiWJmIhWb3lPJadK+U1anA7W6uGDwDOCUJmGGQQysJRjmWUbMprQ/S8JOqr6v8wX+zLY+UmS2ZwZMtAojhVUCJjJzBclqzmydIBPDnNbCq5iMQjyO1J2X/AKOKXq6172SJnKDNbDWve1jTFkpfRVqRgP8AlEGfaovHiqViA/8AKIMS1R+3z+UQZevSFScflEGXr0hUmTuaxR+UQa0Wpjp8lsDp8G3Sv0LEk4lkjZC2zeeOV5nhTJ7dMSJWpIhTcjiHOc93CZWZO4NwmfoWpJz7FE3KLqZ0zMzk9kiYnUWSJ6f+aN3mNzfJr2yx+iZiUtw9uEYZW6WxPCu1CHKFZzzxETM1SEwXE/RxS9XWveTpynekSsTD1wr/AKS06H9ZUm9xJrhP4H5EYgnJbhjsWzRsaqsjn9CWsOfJkYE8Y72sDxS9XHq4OqEEYmZevanY50un+jtOh/WVin2VGUAYcRwEAT1p0Z1EpasAeVVgnT5UuOo5q2eCLlZbMZnOc539H+bVY9ooOL+tq1vvMypIJQxUhOnn0DEQrktO2NDYbGOpCBqq2MX0AE4xWthrXvaxhbtuOtUH+1WPcxyGwYojg1WkJnUcaKN2HTJm4YhjjPe1jVVznve93oqkXtM1yo8Rfa8TMSkuHRhHEWPSZxWjUnUFf6IiZmvq/GcYrBDUHccv2y1zmyO0Ws0Xht+cJoulHmEwzMyhGnPi0j9NStjRVLZwqQmTok4OHvYNq9c5S/7fTKip3pbEB/WpXp0+VLTKXfcQLFUHDvNFyknTcpIxLxuNZKy//h/f/8QAQhEAAQEEBQkFBQYHAQADAAAAAQIDAAQRIQUQUTFBccESgZEz0bFhIiDhoVJyMvATYrJgFELxFYKiQFCSIzCgsML/2gAIAQMBAT8B/wDnEpSTQKS7KrFn4u76l0VYzGMz89j/AJJl7If8ky9kOurWRvGY85u1qtQ+E63ZgeTrQUmRoP4ihYNTXsTfydiwSzHd35Tt8bVilYkqn5yPFQJZ0ilN+UZ+f4ggoT6hmfgHr2c3AlY3j0M6PiNw0l2lYtFYd3Nzct1nKd5cN1jKd5dnWDVOXWz88XYVihdB7p7cN/Owh11WCqgyFziqk3n0c1Um8+jrqpWQg56ObtYdaMRtyb/w0xZForVGX0GUuhASJDAWRkfPuowyqvzdniYQi2mFA9o4ebsGP00ymTn0dnjiKuSqlPdP9PlsdoyUgyNB/DFWMZJ1sqqBmHn0srKJ1RqDE45vPp4WTFSzJNPzleHq1KaVd43fp87W0Qhn8R2ZdztK19kb+Q5uaza9m5xWbTsLs61H6hLtFLs2qViaTOxuwS0EjsOUO3YFmqR2G8fhVjANF/ZF55Ozq1mMe96D0dKQBIUAOTJ2zTXUVX2hJNApLw9WZV0fZGkuhASJCgWNGiUCZoDxFZk0IoF+XZc5M/ChoUGYoLwkaGlBoV1zcrIqHDVMsuQ9rqEjI4j8JM2ZWZCkvCwKWdJ7yvQZufgjFSZHNLfRbCwSmtOCb78zsYdDPDflsJk8RWQFCO8b/wBPm7RqpZmqn/wBk8HE/VT9oUHntsrNhI64y0HP5jp+EUpJMhiXhIUMk/aOJ0ZrG0QlmKdgyl2dYKW0AFCSdvzmsrHhHZ1thh/zTmFkRHIZ/aVcNJdvFLaY4XDDwQ9WqVSrui79Xk7JghAkBLrvdvBIadhvGm928Gtn2i8abvBBttRoLjQdvKyLZ67MjaM4p/CNWQ9GucydJsiokMk9pwHzkdo0KzM0l4Pipz2VjwjnHW2H4acw6PWbZSZAUTnPwQ8Gtp2JvOi92EGhnhSbzousZxCFmQMyPnbbEVclVKe6f6fLY7VipmZKo6HNawXrIBvFjRMlEXEj8Hs0aygL6HSkJEhgKHUqQmcBS8Q2LRU93YLIPipz2Vjwjs62w/DTmHR62xTt0WMmCmh7tPQPD1clFKu8f6Rz22REahn2quGk5Hbxa2mNA9kYebgyeHrIihdIvy+bs2qViaaRYtAUJGkPEVZlR/qdB5upJBkaC8BwRt6myJ4ivePX8H1YibSfsjrRzsrNrqol7XQfItg+KnPZWPCOzrbD8NOYdHrRJKkgUmnQ8PVmVf8AqNJ5b3SgJEhQH1hhlusiKsyo/wBToPN1oKTI0G1m0UgzFBeHrIGhdBvyeTgzsbQ6Gg72/KNrsWeonVusaqmom8k+H8u09lW4uWCxilQGY2oZqVgCcwn0f8u09lW4uRYEk0Ck3B/y7T2Vbi62ak4gjOJdbPyjL2Q8bDoSyJAANFO0eKEY/UXLJicwdKAkSFAesYZOrrigjHtBo/ytUihRzabK1V3wLh1PlbB8VOeyseEc462w/DTmHSxawkTNAeIrPIj/AGOgc3KyTPLfleHrIihdIvy+bs2iViYpDtWKViSqXiKtUmlPeF36vPwMIpbPDC44PDxyGlHwquOg2xCtVBIu8TBWsgG8B2qdZBF4ItqtEkE+0fQec7I9Gq1PbTv852VcmbXMCdGmytVd8C4df2trDgnZ94eKFbfTWFZMuYuhshQmCHrCLSU6iaZ4ywo8/wDK1T8JziytB/02aTbB8VOeyseEdnW2H4acw6PGRf0sKSdwdq2UszUZ+Bm1UgzTQ8HG/VoNChT2GxvCIaY0H2hj5vEQS2fam8abvBCx6kUKpT6j5udKgoTFINkfC/TVMfCr0N3Lw1cubLMSNOmxqnVURcSPWyFRqswOz1NJsrVFIVs0jTZVKaScw3/tZGqm1O7dRbWHBOz7wsDBZyK3F1JIxoz0f+IYrOAJ2F1MlDEEZwR4/oL9lW4uQRjR4QJv+XaeyrcXUkjGjP4wwWf0q3F1JIxoz/3NVK7xF4nu/eytUUBWzlbB8VOeyseEdnW2H4acw6PW2KdviqviHNpDqMg8PHIafZVcdBsiKuSulPdP9J2cnbMFsz3t+Q7bYCK1Fap+E+hv52N2QaIKb+uRyJGV3gqleIzHRysj0yantp9ObsUaywLz+9jNprT7CU7nrFE2Xu06OhsqtMmc7z0+TYtUzO+nfbFsitGqMpHV4eDQz7Ve0dF1i2YUJGkPFw/0lSyGkctlkPxE+8Otla8Me9oNjJmVq1RiXh4NDPtPtHRda3gUL+ybxpGV2idVUsZUTFsZCfVIySnPM7GGQzwG3LvsaMkrElCbxkJ9I3pOB0G2DgS0pVQn1V5OzZJQJJErFoChI0jteNgdTvJ+HKPZ8rYfhp90dHrNM0CXtdZ6XhIEMxM0r+7m52VmqbWVwlp0/wBzCNdRoDsOY2RDL6iCm/DPkciRldYzXqqBupdhEpaCjHKModSQRI0h4irMqP8AU6DzdaCkyNBeG4acw6PW2Kcx8VV8Q5tIdfwnNZD1gtFB7yfUbebsWyWgmHUkKEjSHiWX01lOTJmNNsA212famg6PSysWeq0n7VPPwVaqTXOCNOiytU98G8dP3erUTaT9kT0aXL1Y01tbPrf7O0RrJIvErIJMmQ376XilarNR7OtHhb1mAZJ73bk2XvDVlrK1VCU8ovzedlZomzn7J60crIfiJ94dbK14Y97QbKqRirMOeiyLjl65Ce6BR2mWd2dYtE494dvMPEViCiSaFHH7I8/ATKk4O2rSnubzy+czsq0M+/KV4xHNwZvEMvqIKd2fJZCsfqLlkxOb5ocCTxcYGVGKjku7S5rFrPHZIfv6vBx31O6aFdmBcibt2eospu6ZPSyH4afdHRyHiIpLLGk5AH/ix9n18nbNNdZVf/dQLf6iO1NB0HbZWEJPvp/mGnnaFEUigvD1mRQun7Qx2h0NAoTFIdqxSsSUJ/OR0J1RK6h62xTmPiqr4zm0h14HNbVfD/m0CysOMdnS2ql98i8dP3srVNAOzf8At4IZWq0B7RysrVPdBuMt/wCz1Uigntlup0vFr1WRPZLfQ9Wrk1l7Qlp0WRaNVqods99Ol2aZJAuAG56zVJnK8y06PBHn/idnUWJMjO6ysOCdn3hZD8RPvDrZWvDHvaDZVbWSin2sM4+fSyJgEtDMd1Xoc7tYJojJMXinz8NYcE7PvC2r1zZDso+dlkSmTRWc+tL1Uigq2adNjeBarWVUU4U5Mno/8Ma9m92EA0QsKooNNOTL6WVmP+ucDSNFkPw0+6OjrVqgm4T3O0aFapnE/wB5DRBZKnkyi8OhYUJikGyKq7WpRQfZyHNc6klJkaDayaqQZpoeHrJKqFd03/p8rIiFS1FOIwLxEGtn2pvGm7wMIVbTDC84PCwaWXao4nk68Dmtqvh/zaBZWHGOzpbV3FG3pZWfD28/CzVrJBvAL1iJsj2SPrLS8AiTIdtO/wAnrRckAXn0HyHYL1Vg3H0y+lkcz/7p+1IesuVlbKpAznlp8FYcE7PvDwVhwTs+8LIfiJ94dbK14Y97QbAXh6zyL/2GkctzoaJVgZ5rIqBS0ExQq+/PzciVtYcE7PvC2qx/zzqPQDRZG8VWd6q4Z97QLC3Z+0neH/MM/aTvD/mGftJ3h/zDP2k7w9YrCmlFNEqKcpsh+Gn3R0eI4avdPT++hEarMDsnvptasEtB3hPrveIq5SaU94f1Dns8DCLWzwpFxw8nh41DT7KrjoOWyIq5KqU90/0nk/5NprasqfTfg8PVqU0r7xu/T5uA4aJnq5cZOvA5rar4f82gWVhxjs6W1YmbSdw8rK1V3ALz08MAqbIdlG7yeJTNmrMXZp1UgXCW560XNYFw6/Ish16yAbx65Xbs5rQbiehP/wCbKxVNrmkNOnwVhwTs+8PBWHBOz7wsh+In3h1srXhj3tBsSkkyFJsSopMxQex4CLLTuqxFM7x22VgmTU9sjbH8E7PvC2GZaiAN+c0lyZO0VrKJvJO96qaYp2jodFlYMNVc8iqduUafFD8NPujo8Rw1e6en96kTNjVeqkm4TeHrBC6D3VduGw2t4NDTsVeNN7t4NbPtF403eCGj1po+Mf1bHBsatkoE1GXzc8RWSlUJ7ov/AFeT1XxDm0h14W1Xw/5tAsrDjHZ0tqxlJGt7XQWVo0msD2R6nyl4aqV3SLjPf+1sWvWaKPbLdRosqxc2cvZPWm1urWWTeT5eCsOCdn3h4Kw4J2feFkPxE+8Otla8Me9oNlXQuqNc4nDsHm7eDQ0xoN4x83NU/a9PN4WEDLtJxLl4lprtCq/DMKB4GlWs1XpzYbuTsIFDMzxN5yZrKxiNVOoMVY9ifOxi1KFawyfMnZNAtMxgXWgKEjSHXVSchlnp5OiqhlM81HN28Cn6ckiRFIvJ87Yfhp90dHiOGr3T0/vWfxDOLIoTZqzGyHjls6PiTcdBdhFIaYY3HG2Iq5KqU903fpPL5odqxUzMlUdDmeHgFrpPdT247A7GGQzw35XUoCk0B4is8iKftHDYHWsqMzSbKq+M5tIdeFtV8P8Am0CysOMdnSyHYFoqW83B0pkJDAOpQAmcBS7VprqKr/DANwzX3qARnpyYbX/iDG/0VydVYMpY05jytq+ISzJ1qAdtIzZ3/iDG/wBFcnXWDKVBplRQcd3g/iDG/wBFcnjIxmtmQDMmWQ3g5Rb/ABBjf6K5PGRjNbMgGZMshvByixioBYJwBBOwv/EGN/ork8fFM2iJJMzOeBGQ3iyHjFs+1Nx0XOzrFmrHuntw3jTJ/wAyz9pO8OuNZJyzzUvFR5aUDup9Tn5eCLaFDPWGIl1djWLNWPdPbhv5v+aZ+0neHb1mkfBSbzhzLqUVGZpJtYRKmRo2jIXZVkzVj3TvG8P+ZZ+0neHVGMhlGyno7atPYG08ue5yZmd9jGOZBABNIABoOQZnbRzIoIBpIIFByjN/fIVNIN4m6hMSvodSZGV1FgMnh6zIoXSL8vm7NolYmKRYQDZEVglFA7yvQZy7aIW0x3ZLQJvV8IpB1lUTEpZXXgc1tV8P+bQLKw4x2dHYsVNDIeQzvDw4ZJkNpvsrKJ/QP5tA0/4SsOCdn3h/jaua6zOWVNHKysmOqvWyK+95+Bm0UgzTQXh6zBoXQb8nk7SOZJGM+wPERy2n2U3DSfBDwC2lPwpvOgOwhkM8MbzjY2UEpJN1tV8P+bQLGsB9RprE0XDF2bNKBJNAsjIsMhIfGcBd2lyZ0/4SsOCdn3h/jYBvqLpwVQdBsbMg0TqnL6drtmRZqkf37f8AwYwy2mG/I8PAIRSe8rtw2C1vGIZ9puGm54iLW1xoFw+abYBEmQ7ad/giaxCaEUm/IOfR1KJMzST/AIT+KtLk+vN20etonVMpG6eSm/8Ax0BFa41T8Q/qHzjZEQ6Wokdhyh4iEWzxpHtDDy8KGalmQpLw9WAUrp+yMNt7gSwosat0sx3vM7HiKxUuhPdH9R5bPAyZlagkZXSJCVzrUEiZwFLtK1H6Rv5Dm7aKW0xNFwoH4VSopMxQQ8JGBrRgq6/tFrWAZqyavu0emDqqm5W8OKpPtenm6KsZjGavTpzdDNKaAJZrFKCRM0B4is8iP9joHPc6lFRmaT4avhdQax+I4dg87KzbSTq5VY5vM/hgGTw9ZkULp+0Mdt7s2qV/CZ+JqVBPdpOQO3bLWe9uwls8IDwdXy7y9iefKxo0CEzOAds1LRWscvp2fhoEjCh0R7VOWeenzcVqrKB6jm/8VVcHFaLnTKWUB2bQLExSLG0MhpiNuV2lVH9J2Hm5q5rdPaHFXtbvUOzqo/qMs1LsYVDPDG842LWEiZoAeMiy1NyRgNJ/EDCIUzMxtGQvDxqGn2VXHQcvjbxiGfabhj5PERSmppwyDJ+I2Ua0RlmLjS6K1vG7z5uKzZ9o2OazZdp2OutRkG/ydrHNF5ZC5NHn/wDR/f/EAB8RAAICAwEBAQEBAAAAAAAAAAERIBAAMGBQQHCgsP/aAAgBAgEBPwH+4p47eP8AUFaxW8ePH1j5k0JOCxYsXNObguoWwcuNT5oyEBqfOCAtxUHyZoREBjg4rwB6poRElSt/EaFGhrHqmhEfCtwo0OANCIgJHeaEjtH0ix4LsSNrQIGhh1rFQgKNrFFYprQvtEFASMDQs0JDDRgNgo29Zt46HhuK2GhZoaBEbBa1GhhkPFc3TkaFmhoERsExpND01hgaFmhExO8Qe94/KcVZgaGoxNL41NaF463GhAciaEVsPXLxV7Dgprm3jxwUjQ5ldasWKDx48f6isWLF/h//AP/EAEAQAAEBBQMHCQcEAgEFAAAAAAECAAMREBIhMVFBUiKxcSByYcGRgTIjM6HRQhNi4WCyBJJAUPGCFDBDg5OgsP/aAAgBAQAGPwL/AN4mlIiTkDReH3Y6S2lFe0+jeEG8INYCjYfVoulV8lxalYpOB+oo9l1nejQdphicu/S8TFqk6TrHDb9QVr8JN/LyNACAFwlT214BtE0Dka16rpLWPFdJa1VYwU1K+7Vy3dMoG5iUrpQfZg1rxXk1jxTaDwK22N3iCBjk+mku05bzyMEJ7KZF04ME+0vHZvaIgjPNzB3UVQynfKnXdr8moeCB+mC+N67BsEvcIOkrtbPnu0u0xLVPtNWGT5z7xUDm5W7p31qb2R1NbSepoPUU8otap2qoSoWNhyhqF9RxH0rEihOKvRtOKywSkQSLg0TcGU8PtGdKREnI1X5Bh8AalCaU4CVTxVIalxojPN7RJicd2pBpU1C9F7rkU+0OweVik2EWH6SCECKi1S9N7jkGzcenkh02TqOi7x9Gg7TblVllE2BqXGmrOyfNqniqj/wAiwi4tE+ImxfrIPxcuxW36RCUiKjcGxeHtKlF4dgys7QkUOybsslbRrm6hmiUO28zRztpnRzRduVPu7Rhl+TQdpg11K84NEipGeNxJ9lWirrk8TlhEbR9I/7ChabEeso3rPZSxWsxUWdcUlbRN1wjUyEIVSFRqhuRApRnlogRXnlrWKXawojJOp13a8Mnyal4mE3a8UiS04Ej6PS7F6jBghNybAxUq4Wli8P+IwEnXFJW0a5uuEamdbDKDtMcTkap73i/KUO28zRztpGCMwXNEWFqX+mnOy/NqnaqhKlYqTgWq/Ht+A8zUqECMhZ3165PuM6/o8qzBrkEC94fITdcUlbRrm64RqZylIiTGwNV+R+gc7UoFKRkDUxtwkVODA5halYpVgZ1O1UlqX+irOyNEGIxlB4mOBysl2LQmS1YqJ3fBX+ktFTpYAvJSZ6CCqF8BFvBX+ktA3ygkRJuAbwV/pLaaCmN0RCXhJZ4pDsBQhA9e8l2ezerY1KEgDAN79ApUntQyx/lXqtgkhOCdc3XFJW0TdcI1SqWaU4lqfxx/meZqyolWLUv9JOdl+bVO1VBqXiYhqnOmnDL82gZ6B0cqTc0DoPM0803iheEmG87XikM8TikzUvPOqTzBWl0/OSfhBPNJKc1Oub3q+4byXmT2tjVJeJhtb3Ds1R7RF1n8q92iSTimbrikraNc3XCNTJCUxWq5qniqtyp2qktQpMHgEYi6WkILzxe0YVO84c+4EPdN35hgpJik3GVaPDX5HdAzCRz88lozVESdJ5Inrtk7eYikyerwAHT/UnpwMOiybzq+4SiHSiNhaCgQeX/AIdF2o7AW0kKTtG/4SugtAiB3YC0t4S/0loKEDy78Q6WRjAtBQgcD+5eIxEej+5O3mGiZuuKSto1zdcI1M62HeVw87E4NDsLzTzSqd92vyaDxMMDkn7tZ7pfkZKdnLdtYpN4sO49RsMnnLb5MhGcQJL+BZT0MTmEK5pKVnK1NHBirExn7tF6iGuqeZ55sJUvE1BqfYNqDJzxp1yTxjUZB2jtFrql55nEChecn0ZSI1UmERN1AwCY1FtBNucb5UvE1NZa7V2TP3i9F15loO0hMqVpChyt711a7yjD5Tc8CdTIhaa9bBbwVPdUoZiQOf8AcoVkuOwyW7xu2sUmwi+SXgvSYtFB0sqcrUqEQbwWq/Hs+A8zUrFKsCzrhDOth3lcPOythlSvvEebVu7mpUIpOQst2LhdMR7SNEyiLliO4Bngjn5pIVnJ1NHMBPM0cGfA5TX0stGcCJO+W3pZ6r4YdNm7S5TX8RuZLt6kCqwKGMgvKg65OeNOuSeMajJ68yiAElu3ZoSgw6G0j7wYFqXUQtXa5P73CpRgBeWg4TZnK9Gg+SCnEXsCLQbmW7y+ztklHs3q2MALALg1I0npyYbWjXDkgG928EHmSGVik2g3st3mmTngTqa3JaG0rVm5IbwhDay3l1Ru/dCPbRYqX+w7Fv8A1BzzikwIyhqfyLRni9qkKqDUvExZKBckQDOth3l8POytk1cZ1CS+rVNaM4R6JO14EjcdqwUJOlYEjp/pnjzE09H9s9PJDpsaGeCOeT1PxR6bWQnNSA1Ocr57j3q1iQOEnnV9wk54065J4xqMlOj7d20SrSaHmXAtEpqTnJt3XvV9wmn4SUyej4izx5/jJbyzSNluTI3s9LO3lkEm23JKOckHmk54E6mUs3JBPQynir1fvAv2blDkYLSYpNxkXjixWVGTqalYpUMhnU7VSWpfaCs7J8miG07FDsqDRIqRnjc0Bo5xuaINSzeplbJq4zqEl9Wqadh1SHEN1C84AsTmkHm52R8VrIRnK1M7XmqEnWDykecJOkYAnce9X3Dce9X3CTnjTrknjGoyiL2CfyP/ACDnaLtQUOSRUgUvde1oG8Xze9X3CZ5VnUJPeJl8fMJQL1EeIN4yP1BvGR+oN4yP1BgUKCgEgRFsnPAnUz7gVq/fO08kT1zg8THlytU67xHnuaJijMNzQ7C8080qnXdrwyN7v3Zq8ulqn+mrNyfNoCwN7sK0xaUsrZNXGdQkvq1TKs1MkJxVq3UfDEM9HwlkIzQAyUZqdcna8U2t+MvNUdUeaSvhgNx71fcNx71fcJOeNOuSeMajKlIiTcJVJNJxDF08tUkRCuSS4ZYGb3q+4TQ7N/tbSxJuFpZS84k9LPHWOkJFfsPLQeXLvOeBOpn3ArV+9Axkt5miLUq7teBu6ZxIpXnhokVIzxuB2R70ZB7TA3ckqnioNS67tOOX5Mvh52VsmrjOoSX1apl4b3l2wSS7zBr3XqMCD0/1N6r4odFkinMVrm8Xio7j3q+4bj3q+4Sc8adck8Y1GXv19tXZ5B82ioQXnBrHtmxjbUtV6mibgy3guJs2bkUxd7LmqGkvITL3Ce2vtcg+ckvE3pYPEXFqFipJyN3bwp5CI+jab0nkAh6sUOUwWLUnKZueBOpn3ArV+9RtEno+EygdN3mnmbQOllSb51Ou7Xhk+TUvEwYKV3bvE3tB2LcqsrVKMAMpan8e0555mqWalYmS+HnZWyauM6hJfVqkEC72jyMEpsAsDFSrhaWU8PtGO6S8MEFMG8XyV6MaXkVQsED6TX700pUL+UN4vkr0ZVLyKoGAgb+jc8XyV6MtCFxUYQEDjPxfJXoy0IXFRhAQOMnaldlKgT0t4vkr0ZKXS6lVRuOBlAaSMwtpRdnlbxkdIbxKuRNrUIFDvzO4XiO0khu87tXLd0t4yeloOBUrONzFSjFRvM4uzZlTkLd5F2ekN4yOlvFB2WtBwmHxK9GJN5vk7Sp5pJSAbDhsZ4lLzSUkgWHDZ++SrEAsUm42MUm9JhKIsOLUv9IZ+X5tU7VUJWiMqUd4vyaLxVmROScBacGL15ZEQCWVsmrjOoSX1amodjacGpTafaVjL/XR/wBz0/hHvV9w/jQnK7s9Je9HZeX7dyp2qktS/wBFWcLmjXWcEtDsO80c+5E6DvE8zaA0sqjfJalXATPGdQkp6tWgYaIval2mkSgm16bhhysSbSbz/CPer7h/GwPYXYeaRdquLFCxb/waCbMqjc1Su8XibpwJqXmBtKxGRAmjlt6dyhxpLzsg9WKlGKjef4Tso6D6sXSkppVhH1/jvdLPep8xKld/sqwbSEUZ4u3aXaajyNV+RpHMFzQAgBklF4qGAytS67tHnuJdj2iwSLhYGK1dlNpbunfWptNVmaLvpUKSYKFxak6L3KMdk400H4bG0XvSGte+TaZK/JoISEjklUowSMpan8cf5nmapZqUcp3ferGmu4YCQcjtLtOz6YiLC1P5Fozxf1tF2oK3iXSal5A3fExHs4dW7AWlg9f3+yj1kXi7gynirz9NRSYHEN26uJrXaS3hDpYFSU0ZQGC3Ziky7xNudlbunkeRTdiOwhuxDrDd6sDkTa2gnSzjfIqWYJGVrLHSeyOf6gqQdqchaEaHmaebftMV5gbTsSLki76jgFxTgq1u8dfpLW1Dqayo9Td27/U0KqRgmz/4f3//xAAtEAEAAAMHBAMAAgMBAQEAAAABEQAhMVFBcYEQYbGhkfDBINHhYDBA8VCgsP/aAAgBAQABPyH/AO4k+qzBFmACuPgKHmccWQdHWQP535lb+ebcr0xSQgN//g+SWiRtof2JSOla8eL3QnM0NVm+n3hdHBxMm0mMRvN9MbP7BAJBtS58slTCgFgbIIYeWZuHdmKgXZr5a+IS/FMyMRzI6IR70e8vFX1fhrCbZQBFURlE9ZaQyY2TiRkD9nALMH8mLPFBXzPWwfIp/WrYJ5GJ0k94BANoURoFvDhzjl9mhvboL9J90poXFx9kEgkRtGT8glvTDTxKxJ+HkcT+sEGrepe9Nkpg4swu+rM/rH6xnAzbCYY3b/V9OJAABALA2Mo4AqtJSMKN58H7KmjwH6lSgbmDozBl3qbxb1mGhwYZlprsoyXaXntZYFzh3h7T+qkEZ5mlrzCYa5kwPB+yYakCwl3SCK8E2+sQ4MDQ3FoswqzCoRrauGnmRZg2FpBxfi/SY4fnGRh1yl85LVV+pF4YnzecSNQEsw5nPGyppWufw4yGMXA5P6klOyB7ZJBCvHYfNuX0Yy17z9bjxq8L7k+ZoMYiq1+CmyBALVoTGC5NnL/gmO5y4ZGH+B64qIYMidwHTV1jsQ3oKx1On9RjlDAL5gn01Dg727UzVsarI+bJBBB20jl/Pq0B0HWNo+WBo5sOvE2ccFL+Wu4KwKrYTConk/V9eJgSjFxc21l0t2pupY9eZUbk2Ot2v0Z56Ti0a7DBYjuw/P6iSXobsdVnm/aO2Dvm94JdvjPguOJ7dt6m/wChyThpULCFI3fSDeBuhj05kYvVa6XaSAVQC1ZtAJj4vOSmyCQajaTG4PkdPhTiYpTwcHJx3v0Y5wr32wo7Y/0+x1Xl+SUkCA4Jf6BqcE2OrTwB+87du+yR3tbzaJN4DNmGQLhs6Y6+JsoTH44HusOvEvQuyhqv1kUqFiUZhZcGzn6c5hOcPyWmuzQ6WyEi8F9XV8PmWi7dQZaxfUX9RCjjYqZ0dI7NgIPkfj/DyRy4jQVG0lGDwLT5nweZNFsFCUigOyKviUiQbGb4YVpo/vmVbwt3ArBxPm/WYafFt53dMpPGSwVNqmzBoMn0lq4CAttsdv8AvcP19V+JS1jAA1hvGC+yg8T6r8SgCAojaOwFlmEV0J9V+JhnNlFC6O3/ADpoxMhWpOn2vFUC5+2TBQdIEJiYVGABQryMK/8Aq56fFH92jx1I0OV/Bv27b1N/0OgRjCt8rThbIiMAXddH74mtUYxtfMwE+LZz9OcjSLifN2sw+sK8ybSY6vb/AFdXiUSEEtHfuzJfmZMKeNkOb4t3C9aQvh8W/a/5jnCveeBZ23i/bBMj+rtB0IJB3PVtGH/J/W1y8TVfgf4ZMSzQcqP7pMdJkCZjU1mEm2NcBRhHFjD/ANX3V20O4PZd+3fZr6uwsTYQ6zFiWBgZFh9I7nDjmWMsmuJaCzRrsct2UNV+sxv2uxh05+iqGxjbkXnHiQrFiG1Jq1DsZYn8fWukXZTCLsDDamMGEOanXaCctEyqdXaNyFzR2VQpA6fkbrX2nOlBjpPDihB7/wCEWI96uhJUSL0Ov2BWBbIpEUv/AIpj5XDT6gAUsCrNGNK/+CYsN0IdfvxZAx0mKBdEHv8A7IFyxq2RRlpTOp0d+3fZo72t59u79E4/wLDKYLH3XNj142jeg28zDM8T39isn13cqg/kyv8AO2EfquFj5kAYOhyfSnkvR+NuJsOo+YzyemS17TZJ08RlTKKB1dnaMfDkD5jIIrBFlG7WWrHd9jEtgDFe0nkGMNfTXnZaRcH4u0mEVdEXZm3qrv0dC5FYHyvBbI5hxx6GHXna2jILoINbD2eZpBiMEwu3VChHEwhDm2QQV+s9fyBtBjGEbTJtNJBxa5yeeu8FVwPh458TDPOLXNtddlCjgIzHouL1f33G/qrswowAAW0J1hJsFrWpxOefG1ueoP8AI/2Y50b2ztbsWOmu4VO8hTFQDgm1l6hpISwqtjT5KS6BfgTGGivqasNfMrHhJ7e6feXn27n0T767aEZK2Mn4ZDNGOCNEbmUg7ZUJrJtHKkTxGG7ROPabHx02Fiotdj0jr9tFMgTVfiTD2U12x1kkVgi6S9tB7kehIq/uEojBolpMK4heqPScFqg80Ov0UCLZK4UFuM4LXOJxMdGqjCKyIxtst2LADXih7w8bequ/R0hFhqqvQ2DEaUhFaFi82QmnnFGvkg+YzAzR48PDjccC5+gIBRSwJj5ob6uVENfEjKjacBzCxypLtwUUYjKAKiKuFnt0ojBtlcxPC3zZrJ1wUAwCRgQER2C/4EohAXYXcXvLQdAirALck7yFMHAcMujcDxadobequzB4IxakkPKLNuPSekkcfMPiVVLUXDA8f7QxT2x1O8do5FCxuPUfO4NlmoMwUvaRMcyuckzLie0mEkcHEybSbHmRLYE+8vPt3HonunT64O16W9wMFmvxdon8oD+Ppn2Mlg9to/8AFRGUG7A0ReiakwWHn/NMCbTVf+NrmIhlQ7M4K9gITD8RGh+g+iEMGmnJPbZTbUJpsNPaequ/R0nsIR1lNR7bNo8tW5hfyeJiUGcD9NT/AASKZYviKnZ2gzYQsljIXpQaVepspiFH0MITxyMAhL3naOwBeTy/Db1V2ayy04EZamLRfzIsP9wkVWb/AEWkw8RiGzkC1bBfB4sylU20UHeLViXOZYzBzPO+tOZAEiNiSGIuSCPUmNeAmph05+lnHHS/lpJ6gcGpS4J7h0+uDteluhDxF2eyufr/AN6Qn3pmSqbYnq07QmBrWM5H9SagwiHKNe21go+U/CG1vbRM2B0f8Uknqrv0dAEgKiSIG0ofA+TxOcanW7XY81uJQ4fqWRQSAcE+0iCuIPB8bMXLx4pKIWMWwkCFEYg+Z9V+Z9V+Z9V+ZiQCiC1bTPb1V2fVX/8Aev68yr53gDXcDJtmO5Bh0x08SiMG3d6F+VNF2kw+Pu+bHrxKCQajaTF4fkdMNKcSlqy5fghMKTiWfWnEgAgWBZKwCUBaHM906fXB2vS3bDEfMDbNS8P5+vLInRp2SVLIsQMiPxJEfiEJuo7yj0htfMGoo9yaDYp19W2DcD2Y9V/xSSequ/R0DRTBVZRFEglpJVY2JBlCypKRigxwjUz2wHeale9dyu1AUARWgEpZSR8h8WSpUAU4JZ63zqMgKag0aPU2CRVzixnGuv29Vdn1V/8A3efweZEAXTAgiuBvCYZ3UZfB3inkLqY9eZUbkWOt2v0ZU9LTQ45M0kYiMVpntCSOBi5FrMYF8v6u8y1Zqri6J750+uDtelug6p6M47Qmsiuf8Q+se6joh8N7oYhlQ7G18KGlXWO9fIjB4jTt/ikk9Vd+joiKjTe459Gc9qtuuDrWbM81fWUgdIhClwfzKBIBFW6Q+DKodjdBESI2jNbw4fE2aQk9GLJ5BTq7RCULHr+NrbojC8xNSWtj5xxHklgO0KUCJ6jH5SViT6i/CVmb7EMFxiUuHf1V2fVX/wDd9VfspVvSNoU0LMDlhlZNhPgh+5myCQajhMZ65+rqcTHaeDg5OM26TMZHyznkiq1+CkqwW5IExovFaMdfDK16W7Hceie+dPrg7Xpbcl+7xfxzJYQYHBKHQNTgm2sT8GhT6xVNJgtYiWRb9pBPAFjbClsEqrFt2B4LWFqUsi2LtJxWa4wUtgt+smGP4bCtUCw+kmGP4bCtUCw2caCbcAXaSFECiBSBiF5tW29sdLunEwcfBRPJ8hIkTULrMXQL0Xd5XRjadTjg+jRwgEajFgjxWQAr8q0fqExYweC9issuMUBkWusDOXDNilq72zi27n6Vk4Lxj1D5CbC1CdZBi8D8oyY9+tLHlcpduKRXLtCGBtmgGUYYG26oP94Y9nnCSsYq1pNuMFpTY8qFgozDz41nP/hzkKRcT5u12hYQGJEjXaJZKWM34O01GMBQZHzbueNSwVZqK782jFussnunT64O16Ui4h0Bes2tmuIvy42GEatqO3ydP6jISDWjyt7KabKBXzj+lfP0jecOOd+sjA+aZlp3MpgIMCsvwazHi95zY5WfSHHGznJ82T3ZktcMjZnoJ6fXhAD0FwIVcJLEHA+b3aMoH+x8GMpXFRTFf6jIZrDR3F57O3AeOI4JlMMsLHBLzj/BCulQ1+CswnISjI+XeKeRurh14l2DhMbBre57rE2x+anaG6gRWAWrJzBsnpr3bOXRMilr/wCK6M1gRRFRHFXXf+cI0DRfNmY+doDICwtXtpKzguou1+p1i4fK7WYe3oIuOlM5KmsQobQpvIZExzMS3rhp5lVYtu9ubAyMXQkgYGBwSykAU4JNRlvIdj9mlPpPDHWP9Vfs2ISfgifq/FpsgkGo4SnqPxWdpx2cROidJjqcOP5y9Hg2jtXvPA8RDZIO2UCbbTXR8viVSbRUfq1DFW9YvTYWfQf69H+sAEgVEtmClddAxzK5zA9OGupaa/YjhlVhH26kb5e1Bboemv1AApYFsqBorc88uPOyuQOOfByzaVtC4wNP61EAKxIM0ShcB7295KVjhT9lh0i5pp8FmRTNWs9AoOG52BtcAoNf2JJooDAIPkj0Jsoc/lQnDub9JUiLjUeWB1kHWVvLDSGxlKxUwj3B5c9P7BYRNt3P22TzqHmx68fcxLuqut2sxgsln68/2MIgrifpoyPUfgf2bOZ4+FkqjJ/STiF5UOxHrMcUf7G3v/8Ah/f/2gAMAwEAAgADAAAAEG2222222222222222222222222222222222222222222222222222222222222222222222222222222222222222222222222222222222222222222222222222222222222222222222222222222222222222222222222222222222222222222222222222222222222222222222222222222222222222222222222222222222222222222222222222222222222222222222222222222222222222222222222222222222222222222222222222222222222222222222222222222222222222222222222222222222222222222222222222222222222222222222222222222222222222222222222222222222222222222222222222222222222222222222222222222222222222222222222222222222222222222222222222222222222222222222222222222222222222222222222222222222222222222222222222222222222222222222222222222222222222222222222222222222222222222222222222222222222222222222222222222222222222222222222222222222222222222222222222222222222222222222222222222222222222222222222222222222222222222222222222222222222222222222222222222222222222222222222222222222222222222222222222222222222222222222222222222222222222222222222223H1+y2222222222222222222222222222222222222222222222220pJJL222222222222222222222222222222222222222222222222hGzc5SL4222222222222222222222222222222222222222222227Im22FJJDS22222222222222222222222222222222222222222227C22IZg2REW222222222222222222222222222222222222222221CC3aYdG265622222222222222222222222222222222222222227pJm1pTG222VO2222222222222222222222222222222222222222HHJ29FG/q425O2222222222222222222222222222222222222223JjZ20W3edDS2YW22222222222222222222222222222222222222zDGZ21WLMIjLAoG222222222222222222222222222222222222221C2Z20CKTGxROYG26WwQyaz222zW22222222222222222222222227O2Z20bDzWm7pM22xG3G1A4222BW2222222222222222222222222zG2Z2xg2wo223Jm21A7IxE53Y2223I227a23BG227G222222222221C2Z2+G22jpq24y25OJW/S4VBmYXNJ455A20Ia2t5m222222222225GXWbPG23y9YW1O21L65fW4AZ2YWYEG5CQbh2oWhwW2222222222234G7ILG2342J2/K25AX4xm4mZ2YWJm2423DIVZ2qG2222222222223RDW7aq2562J29K22emYJG4242YWCI442/FIUkmk222222222222223IV2wyCKA2J29I225CxY24242YXYfG5mCIY222k22222222222223bNIo22INg2JmxE22ZO/JW4242YX8dY4VpmJAfWk22222222222222I3nDSmZHw2JmbA232q8+22G2GHW/E241RG5grWA22222222222223yY47BEG4Q2JopW2222222222222222422222222222222222222229M24M239C2ILOW2222222222222222422222222222222222222221BG222HIg25DI22222222222222222922222222222222222222222I623SI/wBu0Utttttttttttttttttttttttttttttttttttttttttt1wqSSS1tsyttttttttttttttttttttttttttttttttttttttttttttCSSSVttSWNttttttttttttttttttttttttttttttttttttttttttts7/iMpvQdtttttttttttttttttttttttttttttttttttttttttttttttxySSeNttttttttttttttttttttttttttttttttttttttttttttttttgiV9tttttttttttttttttttttttttttttttttttttttttttttttttttttttttttttttttttttttttttttttttttttttttttttttttttttttttttttttttttttttttttttttttttttttttttttttttttttttttttttttttttttttttttttttttttttttttttttttttttttttttttttttttttttttttttttttttttttttttttttttttttttttttttttttttttttttttttttttttttttttttttttttttttttttttttttttttttttttttttttttttttttttttttttttttttttttttttttttttttttttttttttttttttttttttttttttttttttttttttttttttttttttttttttttttttttttttttttttttttttttttttttttttttttttttttttttttttttttttttttttttttttttttttttttttttttttttttttttttttttttttttttttttttttttttttttttttttttttttttttttttttttttttttttttttttttttttttttttttttttttttttttttttttttttttttttttttttttttttttttttttttttttttttttttttttttttttttttttttttttttttttttttttttttttttttttttttttttttttttttttttttttttttttttttttttttttttttttttttttttttttttttttttttttttttttttttttttttttttttttttttttttttttttttttttttttttttttttttttttttttttttttttttttttttttttttttttttttttttttttttttttttttttttttttttttttttttttttttttttttttttttttttttttttttttttttttttttttttttttttttttttttttttttttttttttttttttttttttttttttttttttttttttttttttttttttttttttttttttttttttttttttttttttttttttttttttttttttttttttttttttttttttttttttttttttttttttttttttttttttttttttttttttttttttttttttttttttttv/xAAtEQEAAgEDAgUDBAMBAQAAAAABEQAQITEgUfBBcaFhYDDBQFCR8YHR4bGgsP/aAAgBAwEBPxD/ANxKMHkXW0Gv3I0D/sqtNgKhqQUkEX3PkSk34YI5pBj5CWZltkMAEBhqFQ35C2/XNiubhBiA7DQSHarGX6P93xd3g7A3Fu8HxoGaANlFFrNSOUjuioROk8ggkNk6Yif8YJh4CFkeL0GJVAVSAEGBNhqWawjaFHdf2q3SxQAHED6Lb4rlrqVfipUAgoAK7FVTxZZgkqurQQ5MEoSkgFsVSsvGaOTdiFbLFbQ+JAU5LCcFabmS1Q3JsHXCAl0LL0LMCX0HQjCUJXCkTsfEbAIJp1BgibOgHxiD12QgjFoBSldeVCdsCogSoKlL5racGJpgzqtHxEQkLVwE63tFrycwwkHXDacNVC0ayKwoEtSCwCTjXEcMh7TmOyAfh7k7ujGwUDUCt/04Ieu4EnoMEUGARgFlSbQZ1VBFIw4cvIDBDkopqzSKggqn4ijKcwAgnd8YHruBICEhRnVpEUYKg6iiTQZWGghy5JQuBywiRkxAhNQTGpj2YDx7z+1KkBmkNJ61u8/tUGHRMMwKU7z+1gdZ62L+Bpyx4HKE3SRQKaSaP9XQgk+iEBhJBM2XJRXRoJpVsj6WlDSDELIVCiMOUddWEWQF3YLmuu8wOOonsrGo1xHL2d/SGuBKCPOzAn+qoLCRh6niB67gSOQFZJhwTIlZkUDAJkVDVY4UKFvGEwNA+NkWcJpkdXsA/fWIl6cwM/6PFGBSMWXgK+iHTWg5C5AE0fWk5AlxRQEt8Ts/KqwFcwUiFkYCvyUfRmFP0XGD13Ak9F9nOSUehdCyQRhCBGQWZx4oKHRb8GhjT+pqPZmwLSuZZ8UYic7YKWCbJrxORPuUAdDEEWSjwsSd56ceiYx1QXQzhq8VxKTJMhIrD/hUCNbGjwFSc4IEkQwHEESyHlD3nprxksPRQIOJeSL8ldCJwI9AUOi0cEJ3dSZ0yIJKDqxQQ5fcwJ2j25yesZVolPpXASUxNmQgpxROjYcLTMRw9ldefipQTVRfGokfGpEYbH+pd56eAthzWIQMMDHxYB3npx6JjKcSDSk0D2osNdvAgYUgV9AIvRwKoACbNFDxKkix9mAAaBTYFwLlAoJsNCYR2b7sMDvPTQd/CneJq1NkW8OJ/lQs4sPotckzJBYjRUE2TA4AidjXaPbmp6pnf82DuPZmDBqfp15BKTdUfs3F14xsR+dDKANBH+AXy18EhDhKA3U8DO89OPRMYMOBTKoNffoJDWndeKLWC6qTE8dFQdn/AErW09gGEYcId56aKuzUYfmQRNQAbAJPvFBHGDMuJWIqkRJLFNFHVU4UK6auojQPVM7/AJsHcezKTysG35eTWJ11UWp/5WEsvYswJ+h9TRaGm956ceiY0GTelBWgmSODAbsyR3ORqjcAFNnqGMTCCd297z+97z+97z+9PLCHUwO89N7z1/oLxRSgl6YJGWdVY0WaQSca4d04ZAIBBoVDCRp6pnf82DuPZmZ6vCDsA4/35+9TGLCD4WSWup4ZHdU+dP0kNN7z049ExggkqIw2eLQ87FgAxv4GTOEArBvZt3CgAK7F/lGF1m9sQZyctneem956/wA2AOrQgi+/twCQa+lo1tODDQx6VJgYjgYAuHKNm75Od/zYO49mZ5bvHEPESfozjxDecjL4rfSQ03vPTj0TOL/qYriTpooOw3CAl2olbLIEnetSUiDJxochiEHuUHPR8clcy/lXG6/kXS7kAkY7z03vPX+b2DrhBGKEVCB14VJwqghhQhaAEwdbgyQUDRlQS5cim75Od/zYO49mCZ2sgWhRlsFIp4+LxWEAaNROFSzid0E64IbJ6sn1SGlZGBpWRhOGBpHQHAJopaNOlYAekJtrOj4GPt0oDDuyJNAyBajhMiaPSoJvsA9I2Vq5yKcdFv8AoC8mIvJiBpEeBQsthTOt1gikYbBhbShwboTm2h2XplRQEtTUC9Uzv+bB3HssJaN+DjaU/wARo2Bwd4JwSUFP2MtpRq10Q4AQCoAunC7JAs7vmwGuux/QsIMG6SgnSmV+Im6HhQs2KFh6/QGdOnDUg09bwhCyzW3VmUCWz1vSJP0Qfwl1oe0eJ+nJzuMeKWgro4oRBbagyoDECBiaKKJKmCznx2FEhtoqnaKFp8W4KSYSgaWEUne6vqUA7D/t8RRrioAYRwcJB1vgtInBJxaHwtHH4wIik0bpDCgGkOVQi5rWycaRYNWzQNcE8uKdz40HJUr9mdD7uh8L95sWioPvJgLxqg1lqL4KF9FE7NW18KgWiAnyBFJ2hok8yBcLWJJoHyNaWUIf8+j9+55023c87/letG/+H8g//8QAHxEBAAIDAAMBAQEAAAAAAAAAARAAIBExMGBQQKCw/9oACAECAQE/EP7jDd2+yi1fAPsCyENXUHMG/WlkMlrmVv1hQMd1kGYDR9VXAYOAzJA+qLgStWSteFIXqSwF1HUsBQwa3Ro4JB6ioCGOpaMFqxqShl9UCGOpZLWAUIcBB7B6oMdSwcBiZDXPd3hvDeB3JYX2hjqWSDDdMCVJPF14QdySB9oY6lobusUgaODIcXsHgOJOxu78O7vPee7vPf7xjqXwiQNGUgc3FZOx1BJVkYcC1ZGkjrAZXAZYLv8AWYMEgg+IaSCU8YJLTEph1DkBAxFOBYDcE1BDAQD9SQsGG/MOPCPMAkcjrA7gdhyB1kOy9g5IYOAwH7EkwarAaOC1cnE8eAdr2DBzIdwOw4mQ6wO4uJaurq6k0/czumBKkFbr4DjxD3yB3A7DmTEdlgksmnwEkaOCTqmY48oOR1JgdwOw4FowXcGG2rAQmIMtP3kJUkoatWDwjiFkxF03TIum7YaaE6aEN00IS6bq6pgKl1TAl1dXVJJQ+G4goYLk4q1YHxDvzyxa1QwWrBiGQ+Kd+akFHwLVkKEuB8YD5yQNHJkFMDgD1ZJ3mDIoHrLWswyWT1vWQGGl0gsh7AlTMKHsesQ1/h/f/8QALRABAAECBQMEAgIDAAMAAAAAAREhADEQQVFhcYGRIKGx8GAwwdFQQOGgsPH/2gAIAQEAAT8Q/wDOJVz0OI8BYCvhnh9Q7ljh334IK2Hp1fmVjQ9iHw2eyHBZPFpo7WGlsStxhl7Cvf8AIgMyIJWGIaubIDk//U3t6yTWuo7qVjK5ejG0B8fyBPRXGCdehcU5AIAwAMlBUixJ4+gsTR2GCd6wyUuM/wBllEhhH9lkoDaiT22gUogkKcUeGwgEZGomCWaYqNIjREbTiEK1uiDopYPrBuWV9AtiwgQYOXiNqcaBN5vxpTs4AVX6Li3zrqavLi2oCrAVVwi0Vym40FNLhZq4+mbksFQRjudgPHqJidH1I/MKASJyNwIJLBX5Hvuw/wCE1DsPxgrGg7o1YyZ2uJqtTu9KGaVVDdWsiKOocfo1sDrCgEAGgGUjck+BjXu3Jgg0dU7d2yTpJjybCutke4LTQmie5OB5sH1/XVbJUySIolhcg+S0qjRain8h+KjgVwSI8iwNB6r8W+9jojBwGxaCSG2CVtnqoHodoDNrZQVR4C91rFr6dOi7DBaEE7u7y5aiDnF2GK4tK2lEBLxXFYPLVHdX04d+XiTYYciyRyKDBGMvllDskMxAwnsWeeonESE/EljP0Wqug1bNXFQSuya8/QM9ED2l7ZjUXqSXMT+RcfSEeS8gPOMuADVW4yToyCe6wiVMFUG2AOmYLQJ9LlwmIQZEbTAIQ6sUDbKROsCwC9j/ABG8ojHFUCxUAY7zjxZR1phiWAXIxxqcXDKk5JvDM2iRg3BXuuQVZhMQu6dNialszx6mK5zAgUQFVW53IrRT6NLEuXEQz1mw4WmyTH+5shBjQLHjj6KJooGk0C7WSugP0asfiKadOOg0LlUZFAUzZH/StAQVWAaBoaW+k5y+m25/RbLWAIEKAgqVOHoalHEER5u2yhj6Ae3hcFQ0ogA1VtXlIyrGLKMpIAAQlRHRuY6Ksa/RaIOsGe50zOl8Ah7FoIjg0bojAwdJT+Pw/AQI7Cq9lb4NGgEFlgfPQJW2dRpLIOB85H3mzl9Nsz+i2ZwKbqgtJdVoXSE4QK/C99wAAgKAYBY7YQMMPhuN6imaEYbnZopy9BNRLn6wCGDhQsClTFVR2Spkw6MgTrw3rsi+6ONpp3QZB6NzCmAHQjy+z3fh4EpWNmj7sroRRX2Fjn7d8OX02zP6LZZreyKOgF6FMnV6OFsfUQQB/wBsKNq4GGKYmwQJCE4bTkxZIp36nS7DByIepucmetj5omwwHFoqUoG9hVuCweWiG4mUOAHwm17WZ6sEClSY62oEuBdSJinqvpGJIrg7SglbqAZqNcENhwmLExlURe1GQDCI4Jkr/oUdsSLlUaLctnk0SYnL6T+7wC7mEtHVJ6kARyFDDKHVFjhWgARzGPewlA4gEKCkj/KhkisJwFkStuhkj7Z33mzl9Ntz+i2WuWEiEKg4k3iYZEHQ3eC9t6fILh1uaoMjGe+q5fCoHQ4YWtVpTUdhiuLLNajRtwqdLlcCVeFwYWCUHQCETRHM2ypmVuqarDDKaWp2R6szUlAJZQH1E0fBoew2Ten9Vg+c4HRJt4hk4MAEesZMkH6iR4PfLBeDXVr+kSM4KUuKNDkwWPpRLPUALCxZS0EAUQqn+VRBNRI6rJZyj/Dz+02cvotmf3WyzbBaacSUK4sLfyayMTaB7HoPDmKqDZKHWwPaQCRMNZMGVPhRFCMNhsukLAlA8nolLlQqPCpwN9jXgRkRtBESRxLIYLkCmO9b0qS5BTiCw9sgEECzhx8ZTRB2hjnfJhMckOvlyKYR1SPZlEEsTSECDuZgEtUTrJlRw0043ktzhKeIH6TilUAp3LYDTCPnDQeoACpgCqrfA5TlebIADE1HZ9NPGAlOgWPG+OEMHNuRLR+Aesm5ki4dSFpz/FHig/7KsalusORfCjRz36TZy+i2ZufpUXhvXBmnPdqCxcwz6TELslhBESRojdI7VYVeGyngC0PBaZsCpGcHoHlhlAR/JjtWkkSOIkJ59FRuCfrOXQkQi7jFscEUjGwF2qsAAEBQLr2NDbx/u4locbT8i5MQhYW4R7rv/DE4CWzlg2xqyr3zCMiaCSB4sH0EkIeDQdMgUFRDU5WK5syZPMxZwr3fVUo9DfQGPAKrO4dSFnmkPTIQCEjRHBLMW9QBHiiwARVArMiUhnIxayUmQayLRkwoDvGHTIJUUhDvFUswIhmwJjHSGYsIuCkDUnhuuIlZCjyM9xliIEMO04XjgNYysGcep6Co7qLqVDB1gsDzCiKdHCGuVIGQiaEi9v8AZplVFcMUvdkTkE1OQ+FoTSpSiEcqpBU4Mph64WXIEng+s6iwGsoEIcjcVdVap1fZdicdBHqbnJaGL7H9GxyZH6SylInQWny42rVRGIYKG9dLH9kEE82iiMjVjEvDMEJHM4oK3XKhWcZ/7fQCbYO5AHJGNCXTVyzareTDSR/ZvF/nQEtitGMJqx42YaHcWB82gBRCURNGx19jec+4uCGWiI/lPRQIAJVoAW2ZmLSLagbBakS4FALoWLLHKrEJY4u/qVSiYQoew3J61GVjkgHRYQrShEODsAJlWpdWCiwB6AcA5mAVVWwzGRCnkDBY1jgaK7i2hZQmpASI8lnAVo5T82QAgYRoiWxZKiYn94XGXCIgBAFyN1JxIK10MkGjEpB1PFcEMwq42Bmg3BCEbeyR9Uuq9XmqOM40lYEg9psWaSY0jCRpzWK1aeAIeG1cqWMuBJwD/aqqCE4sHt2RTKVFVDCbhnOfCWIPCXKbggUHHcMBFzz2TFcNws+ZqO6lZM2ykmDBLT9GyT9fu/QAhM004cbJEEVdeCfRYZgq+09w5DC1menaaRVZsULrZjWFTGgIuEGQzREDLD5AB2tEQyAZtHq6XB+LzhU+gISYRUMCKaKhy1O8sJUmQLJVM6weqpRxvaLT5TIFWackFJoJYHI4rBOQ/RElfkRqCgeg5Dj4dFQPZsqyW3YHvZLxMk1goMNDb6X+rNlbCbJiJG/ISCHkiZrUFFAbFQg8XPj1NA0HB/uAttIWJrAtR2EI5TdFLqdVXJjEQZDzmS0sFQNEodbkYNAY3M17rAIGlQiOolwDAyuVI0oYWrDbQVB5vRA1CYnjvDq4thLCwqmFgSX9vu/QghFap0hJ+T14SJZneprYLAxK6TWLPDBS3P8ADagBAtWsttTBHxEe8rESTC8IpAMVEw5MhPYNI/upJKlFADRaESoiYJbhSAGZDU6294woKcDFZA1cQpYYBSt1tOUpRCPR9Uh8U6TPkLLDcO4AvcvaQ70Y/jJV+oyBhEaE9FSpUqLtlE4kT/AqlQYGGPN80VocS7jRc70ZUlPkXkAIGEaImZ+osSk+TsPUtJCrslxAACEqI72qxEqSv0XlSFYE1o/6VgiUUmG5we6wUYYMADQC5Fu0mQEwwq39fu/QghREq55Y/Lk4cYzer6SDWX7pbRUykCVYoBrNhagiel/C4CaJTnL2ZVeZJRt/OXAEopaCGcgBWQ70L/cpJKlFzRwajYC37KRCESiI3j0rAO5cTsK0iEUwGoZCEBQAiBvlLMBArDg2EcnrKAJVaABYMRv6ol3NpazBoEr4shoQDjKfysIQCateStFmAKFZX/CFUqaEV3qCxJwAHYi3OMAwoQY5sNotJKvNTMInPAAT4u+yFGtAvbxzhRkomDakOKkDas2HZaShJCYgpJk71Lqvsdk/xoypdSlhlFAlVWq39Hu/QglRAh1Y1w8rICiYTs0+mgi1NdR2IJDhlUKUjvkjM+CDiD7rweMqFCuwk6PD90klSjqAx2BLKm236YeysdzZ0WAdkNnOIhEFahgnGxvmFoAEqvF82nUUR3qWZ9hQCRHRG2EtSuNXG+SwxV9YzdoDq5DuXiiuy84MtU+taCUXhIuNDsNBgNEvvDyBgiVE3LYIVQkZ0AljcoVB7yzXSiAdUVqhYRFEhKI/4CpUYM0Bl7cqkqU7i/GTL0Il9wvUsTYQmF2WjIQAAhVRG5qiSsK/QrYsutOe5UtBDEQUbyIkZEPq9lgrdSQBytwd4CNPVr1XMTDIl6GxwZyXC/eXrQQjSSUTA2rq4WDdFPACAsmj4aBLek/zYX4D0tA/wHQTkJJHYIOFQoVO7aBFTKtVXJmKMg5EIOQ5NjISpEJATu9Mm5/XvNmGvok3P695sw1yoDJ1ZYQCsBplJgBD1lDJsciAPPMhE4rxfSwRJURp+J7MEI5TwhtojcAW9z52fs6syezKHoRWWYEAQNxZC0OIV4Cl0gnFCXkbOeag7lJC9Fh6AH5Rq5pSymPA2WAIXAAycGsWAJARNS8It2r0lb4+60uTkpI5CbDP05uKkr5yqzZ1hhIhhNLozZ1hhKAldf8AdFESiVG8MFEM4TftZMlXzY3wR8tXxkhV5ag7iVLkJOAohwwsNbBTUdhiuMgYGAIAwSdTKSwcitfjxsTNAz4LflmRi8FUXQCxANahGgKWPr93qQSlo4y08RWd1yyP4IyDGSoYwCv4jySUYw9dZ5ZEecCDAKEel6AYKYroNhgOLHhpAC9IlbDuKNdOvyLl/SkiI7L6Aw9XR0uyvVYSCoiFuuDIMg/V3kB3aZhH3gyEpmAao1JQU0Lq5i1F3TXkcm2+YgdGwhdJiVEqv4jJEjY7hJV6UZAS0aOD8pXIMPtttV+iYKDHkLVYfLDWNL38wCEMEEPi77IHcEEuisc4BmJc4RzD8wpRAButqpUIJsE/USco7/4WjSNZsY2EGP8AjijSYio0BkUm0lxc23Gx2WenVHufpaQDqYN1gObRs0UZA8VemwUpIKAbAZVXUka+7txGWopT5HtvQIqZVqq5iWxE46idxvh+CAQXxvpIJbEdIoz328+tOSl9n4qNS+QBLSupmhDGb3yioQEKJEt0G2sCeYty1SNB+6wwR6pl9zZJsRWPDdCnWmlyxi9ch/ZLgO7Z4xiPzm2xyJcp59LeIgCqVrtkq5lBMRZJ6f4wPnSLIE1EsVk4BUexcDkNylJ1PYeqYyqOrrrYCpnECzY0ek+MYMqXQCx6sS6i00YaZVfXzdabiULpUUTgdB6PxoTjaAO5YJCepfhdEN+fNt2qLoVTxBcyBKoDaAFjRJjqtQ0MoCQkeHhj0sK6tk9qNjbBHIeStuEO5/hN6aEh9gPFiydEVP3ZIyqysAWKNYzYrDqtD8g0/wCDEAaD+FlmEooEuyeuEWMqCXlhcQKiZ3UfkfkawKQpBsLYUIhhVOsGXIqmyLE8S2AsCEf0LotT9QwwjmS7KqqytVf/AEfv/9k=;" vertex="1" parent="1">
          <mxGeometry x="-610" y="1270" width="187.55" height="120" as="geometry" />
        </mxCell>
        <mxCell id="9imsYksPvWUquA6H1-_u-30" style="edgeStyle=orthogonalEdgeStyle;rounded=0;orthogonalLoop=1;jettySize=auto;html=1;entryX=0.5;entryY=1;entryDx=0;entryDy=0;" edge="1" parent="1" source="9imsYksPvWUquA6H1-_u-28" target="9imsYksPvWUquA6H1-_u-18">
          <mxGeometry relative="1" as="geometry">
            <Array as="points">
              <mxPoint x="500" y="1590" />
            </Array>
          </mxGeometry>
        </mxCell>
        <mxCell id="9imsYksPvWUquA6H1-_u-32" value="&lt;font style=&quot;font-size: 13px;&quot;&gt;Read Data&lt;/font&gt;" style="edgeLabel;html=1;align=center;verticalAlign=middle;resizable=0;points=[];" vertex="1" connectable="0" parent="9imsYksPvWUquA6H1-_u-30">
          <mxGeometry x="0.4275" y="2" relative="1" as="geometry">
            <mxPoint as="offset" />
          </mxGeometry>
        </mxCell>
        <mxCell id="9imsYksPvWUquA6H1-_u-28" value="&lt;font&gt;&lt;b style=&quot;&quot;&gt;Video Storage&lt;/b&gt;&lt;/font&gt;" style="shape=datastore;whiteSpace=wrap;html=1;strokeWidth=2;" vertex="1" parent="1">
          <mxGeometry x="264" y="1530" width="150" height="120" as="geometry" />
        </mxCell>
        <mxCell id="9imsYksPvWUquA6H1-_u-41" style="edgeStyle=orthogonalEdgeStyle;rounded=0;orthogonalLoop=1;jettySize=auto;html=1;entryX=0.5;entryY=1;entryDx=0;entryDy=0;strokeWidth=2;dashed=1;" edge="1" parent="1" source="9imsYksPvWUquA6H1-_u-33" target="9imsYksPvWUquA6H1-_u-40">
          <mxGeometry relative="1" as="geometry">
            <Array as="points">
              <mxPoint x="-105" y="2060" />
            </Array>
          </mxGeometry>
        </mxCell>
        <mxCell id="9imsYksPvWUquA6H1-_u-57" style="edgeStyle=orthogonalEdgeStyle;rounded=0;orthogonalLoop=1;jettySize=auto;html=1;" edge="1" parent="1" target="9imsYksPvWUquA6H1-_u-53">
          <mxGeometry relative="1" as="geometry">
            <mxPoint x="390" y="1942" as="sourcePoint" />
            <mxPoint x="140" y="1832" as="targetPoint" />
            <Array as="points">
              <mxPoint x="180" y="1942" />
              <mxPoint x="180" y="1832" />
            </Array>
          </mxGeometry>
        </mxCell>
        <mxCell id="9imsYksPvWUquA6H1-_u-62" value="Generate Image" style="edgeLabel;html=1;align=center;verticalAlign=middle;resizable=0;points=[];" vertex="1" connectable="0" parent="9imsYksPvWUquA6H1-_u-57">
          <mxGeometry x="-0.4494" y="-2" relative="1" as="geometry">
            <mxPoint as="offset" />
          </mxGeometry>
        </mxCell>
        <mxCell id="9imsYksPvWUquA6H1-_u-60" style="edgeStyle=orthogonalEdgeStyle;rounded=0;orthogonalLoop=1;jettySize=auto;html=1;" edge="1" parent="1" source="9imsYksPvWUquA6H1-_u-33" target="9imsYksPvWUquA6H1-_u-56">
          <mxGeometry relative="1" as="geometry">
            <Array as="points">
              <mxPoint x="180" y="2000" />
              <mxPoint x="180" y="1969" />
            </Array>
          </mxGeometry>
        </mxCell>
        <mxCell id="9imsYksPvWUquA6H1-_u-61" value="Store image" style="edgeLabel;html=1;align=center;verticalAlign=middle;resizable=0;points=[];" vertex="1" connectable="0" parent="9imsYksPvWUquA6H1-_u-60">
          <mxGeometry x="-0.1408" y="-2" relative="1" as="geometry">
            <mxPoint x="19" y="2" as="offset" />
          </mxGeometry>
        </mxCell>
        <mxCell id="9imsYksPvWUquA6H1-_u-33" value="&lt;div&gt;&lt;span style=&quot;background-color: transparent; color: light-dark(rgb(0, 0, 0), rgb(255, 255, 255));&quot;&gt;&lt;b&gt;Thumbnail&lt;/b&gt;&lt;/span&gt;&lt;b&gt;&amp;nbsp;Service&lt;/b&gt;&lt;/div&gt;&lt;div&gt;Generates thumbnail for video&lt;/div&gt;" style="rounded=1;whiteSpace=wrap;html=1;" vertex="1" parent="1">
          <mxGeometry x="390" y="1920" width="220" height="160" as="geometry" />
        </mxCell>
        <mxCell id="9imsYksPvWUquA6H1-_u-39" style="edgeStyle=orthogonalEdgeStyle;rounded=0;orthogonalLoop=1;jettySize=auto;html=1;entryX=0.25;entryY=1;entryDx=0;entryDy=0;dashed=1;strokeWidth=2;" edge="1" parent="1" source="9imsYksPvWUquA6H1-_u-36" target="9imsYksPvWUquA6H1-_u-17">
          <mxGeometry relative="1" as="geometry" />
        </mxCell>
        <mxCell id="9imsYksPvWUquA6H1-_u-36" value="video.subtitle" style="shape=process;whiteSpace=wrap;html=1;backgroundOutline=1;" vertex="1" parent="1">
          <mxGeometry x="-230" y="1540" width="250" height="60" as="geometry" />
        </mxCell>
        <mxCell id="9imsYksPvWUquA6H1-_u-42" style="edgeStyle=orthogonalEdgeStyle;rounded=0;orthogonalLoop=1;jettySize=auto;html=1;entryX=0.25;entryY=1;entryDx=0;entryDy=0;strokeWidth=2;dashed=1;" edge="1" parent="1" source="9imsYksPvWUquA6H1-_u-40" target="9imsYksPvWUquA6H1-_u-17">
          <mxGeometry relative="1" as="geometry" />
        </mxCell>
        <mxCell id="9imsYksPvWUquA6H1-_u-40" value="video.metadata" style="shape=process;whiteSpace=wrap;html=1;backgroundOutline=1;" vertex="1" parent="1">
          <mxGeometry x="-230" y="1670" width="250" height="60" as="geometry" />
        </mxCell>
        <mxCell id="9imsYksPvWUquA6H1-_u-51" style="edgeStyle=orthogonalEdgeStyle;rounded=0;orthogonalLoop=1;jettySize=auto;html=1;entryX=0.5;entryY=1;entryDx=0;entryDy=0;dashed=1;strokeWidth=2;" edge="1" parent="1" source="9imsYksPvWUquA6H1-_u-45" target="9imsYksPvWUquA6H1-_u-40">
          <mxGeometry relative="1" as="geometry" />
        </mxCell>
        <mxCell id="9imsYksPvWUquA6H1-_u-45" value="&lt;div&gt;&lt;span style=&quot;background-color: transparent; color: light-dark(rgb(0, 0, 0), rgb(255, 255, 255));&quot;&gt;&lt;b&gt;Notification&lt;/b&gt;&lt;/span&gt;&lt;b&gt;&amp;nbsp;Service&lt;/b&gt;&lt;/div&gt;&lt;div&gt;User inractions&lt;/div&gt;" style="rounded=1;whiteSpace=wrap;html=1;" vertex="1" parent="1">
          <mxGeometry x="390" y="2150" width="220" height="160" as="geometry" />
        </mxCell>
        <mxCell id="9imsYksPvWUquA6H1-_u-49" style="edgeStyle=orthogonalEdgeStyle;rounded=0;orthogonalLoop=1;jettySize=auto;html=1;entryX=0.5;entryY=1;entryDx=0;entryDy=0;" edge="1" parent="1" source="9imsYksPvWUquA6H1-_u-47" target="9imsYksPvWUquA6H1-_u-18">
          <mxGeometry relative="1" as="geometry">
            <Array as="points">
              <mxPoint x="500" y="1770" />
            </Array>
          </mxGeometry>
        </mxCell>
        <mxCell id="9imsYksPvWUquA6H1-_u-50" style="edgeStyle=orthogonalEdgeStyle;rounded=0;orthogonalLoop=1;jettySize=auto;html=1;" edge="1" parent="1" source="9imsYksPvWUquA6H1-_u-47" target="9imsYksPvWUquA6H1-_u-33">
          <mxGeometry relative="1" as="geometry" />
        </mxCell>
        <mxCell id="9imsYksPvWUquA6H1-_u-72" value="Read metadata" style="edgeLabel;html=1;align=center;verticalAlign=middle;resizable=0;points=[];" vertex="1" connectable="0" parent="9imsYksPvWUquA6H1-_u-50">
          <mxGeometry x="-0.179" y="-1" relative="1" as="geometry">
            <mxPoint as="offset" />
          </mxGeometry>
        </mxCell>
        <mxCell id="9imsYksPvWUquA6H1-_u-47" value="&lt;font&gt;&lt;b style=&quot;&quot;&gt;Metadata Storage&lt;/b&gt;&lt;/font&gt;" style="shape=datastore;whiteSpace=wrap;html=1;strokeWidth=2;" vertex="1" parent="1">
          <mxGeometry x="264" y="1710" width="150" height="120" as="geometry" />
        </mxCell>
        <mxCell id="9imsYksPvWUquA6H1-_u-53" value="" style="shape=image;verticalLabelPosition=bottom;labelBackgroundColor=default;verticalAlign=top;aspect=fixed;imageAspect=0;image=data:image/png,iVBORw0KGgoAAAANSUhEUgAABdwAAAXcCAMAAAAP67xWAAAAY1BMVEUQo38AAAAQo38Qo38Qo38Qo38Qo38Qo38Qo38Qo38Qo38Qo38Qo38Qo38Qo38Qo38Qo3/8/Pzt9vTf8ezQ6+XB5t2y4NWk282V1cWG0L53yrZpxK5av6ZLuZ48tJYuro8fqYfQ5qRZAAAAEXRSTlP/ABAgMEBQYHCAj5+vv8/f7+aURvEAAGkCSURBVHja7N0NbtNAEIBR/2Rjrx3Hvv9piYQqCgQoaikz6/cO8Wk06113PU9dSrnWWtft4d4Bgdy3h7XWei3l0vNU1/NKKXNdtm3vgDT2bVvqXErPC3F/cSm1blsHpLZtdTbLP4h7P5S5GtShLftW5zL053biuJdp2Y4OaNSxLdOJVzWnjPtQ6s0hKZzC/VbPOcSfLu5lXm1h4GT2dT7dDH+muA/XxZkpnNa2XM80wp8l7uNkYAf2dRr7czhD3AdhB14H/gwTfPNxvy6OToEf3Jdr37im4z7Otw7gqdvc9Iam3biXxS4G+K19afcjmjbjPkyr60nAGxytbuAbjPswWcYAf+HWYt9bi7uyA/reWtyVHdD3h7bifl07gHdYG/pAspW4XxYnqMC7HUsrz8E3Efdh9tUj8EH2uYn1TANxv1q0Ax/q1sB6Jnvcx2poBz7cXrNfX80dd0M7YHz/We6427QDtu9PZY776IEB4F871rTbmaRxL36pBHyKLenbYinjPtnHAJ9mn/qE8sV9qPYxwKc6ar7le7a4j26iAp/vWLIt33PFffR8DPCfJDtbzRR3aQeek/fvpYq7tAO/Ju+vJYq7tAO/J+/fpIm7tAN/Ju8vksRd2oG3kfevUsR9qB3AW/nu/SFD3F1ZAuI5ah9c8Lh7aACIKfqjBKHjXu4dQFD30E+KBY776E8cQGi3wCerYePuHBWIL+7JatS4T85RgQSOqKv3mHG/+BcHkMR26cMJGvdh6QDSWIY+mJhxt5EBcgm3m4kY99FGBkhnG/tIAsbdNzJASrUPJFzciwupQFJ76cOIFHcHqUBycQ5WA8Xd2A6kF2Z4DxN3YzvQhCDDe5S4G9uBRoQZ3rsv7N3betpYDAZQiUBO5ABJSErI6f2fcqadttNQkhgwtre91rWv/0+fpC1n65TtQI90pHiPbJuyHeiVbhTvkS2z2w70zVm2L7JtY3/kAHrmapxti2zZqUsyQO/MTrNlka0a+dsS0EsXo2xVZJsmynagp1qeq0a2xSQV6LezbFFka0aO+wK9djnK1kS2QksGGIDZJNsS2QYtGWAYzrIlkc2zJQMMRltbM5FtGLs3AAzE9TjbENk0v8AGBqWd32dHNs8JSGBQzrN5kY2yAQkMUAs7kZFN0m4HBqn5xntks46124EBmh1nsyKbY7sdGK7TbFRkk6YBMFDTbFJkc0Z+ywEM2NUomxPZDL9cAgavyR80RTZlbJQKDNxsnE2JbMhJAAzeSTYksgGyHaDZdI88PGsyAA0vzUQemmwHaDzdIw/MNRmA5i/NRB6W9XaAFhbeIw9FtgO0lu6Rh+QKJEArVyIjD8jTJYB2njNF1k+2A7Sc7pF1k+0Arad7ZL1kO0AH0j2yTrIdoBPpHlkf2Q7QkXSPrItsB+hMukfWQ7YDdCjdI+sg2wE6le6R+5PtAB1L98h9yXaAzqV75H5kO0AH0z1yH7IdoJPpHlm7kTuQAC1fAI6sifvtAN1J98jdyHaADqd7ZM38LxVga5dZs8h6TQOArU2zXpHbk+0AHU/3yDqdBAA7Ock6RW5HtgMUkO6R9RkHAJ14zBS5PQ9TATqe7pFbsuAO0P1198i6yHaAPV1lXSK3YAkSoIyFyMh6nAYAezvNekTW4jgAqMFx1iKyCosyAD+UsjITuQUX3AEO7XqUNYiszCVIgO9KuBAZub/zAKA257m/yApclAH4U/evzER+wjAV4C9FDFUjP2aYCrBJAUPVyD1dBAA1u8g9Re7nLACo3VnuJ3IvkwDgACa5l8h9jAxTAQ5iNsp9RG7m9RLAp7r9lilynYY7wNc63naPfE/DHaCSbrfdI9fZcAeootPb7pFrbLgDVNPlbffIjfx7CeBr3f0vU+R7TsoAVNXhIzORO7oKAA7sKncU+YstSIBtdXYfMvI/tiABdtDVfcjIH2xBAuygs/uQke/4sR7Adrr5071ITRmALpvsE+5uQQJ00/Vox3D3NBWgw6a5vdCUAei4SW4tbMoAdNwOjZmwKQPQdee5rdCUAei8ycHDXVMGoHHXuaVwUwag+84OG+7jAKAF44OG+2UA0ILLQ4b7SQDQipPcRrg7AFCC2ehg4T4NAFoyzS2EFXeAMkyyuvDbVIAyXGV1YZoKUIiTrCxMUwEKscVMNRwMAyjFef3hfhQAtOwoKwpvUwGKcZkVhTVIgHJMsppw6RegHNdZTViDBCjISVYS1iABClJxHTL8ogOgJGdZRSjcAUpSrXQP1yABijLNCsL7JYCyHOXXQuEOUJZpfi38FBugMEf5pXB4AKAwl/mlcHgAoDST/Eoo3AFKc5lfCYU7QHEm+YVQuAMU5zK/EAp3gPJM8nOhcAcoz2V+LhTuAAWa7BXuFwFAB13kp8JVGYASHeVnwlUZgBJN8zOhcAco0lF+IhTuAEWa5ifCD5gAijQb5cfCn1Ppptfn5+flv+4X3803uV189+3fj1bPzy8BQ3O2Y7gr3Gncy/NquVwsbue7uPme9I/PzwHDMNst3E8CmvL6/Li8X9zMa7JYLJdqefrvZKdwvw44vOfV8v5ufhh3i+VKHU+PXeeHwuUB2vL6tLy/nR/e7WL5pIqnnyb5kXAyjBa8rL4t5s1afFtJeHrnMj8SHjDRrLen5abeelMJ//Qa0CNH+YHwgInmvKwebudtu314VMLTG9P8QHjARDNeHu9v5l1xcy/g6YcPHzKFPUgO73XVYLBXD/iVFg3lO8nNwh4kh+6xf7udd9Xtt6eAol3nZmEPkgN6fbyfd939owKekk1yozBO5VBeOlyyrxfwOvAUa7pNuI8C9vP0cDMvye2DBg2FGm0R7qcBA0r2/9zId4p0mpuEcSqSXb5TsuvcJIxTqdNLwcmu/06hJrlBGKdSm9diJqifu7U/Q1GmuUF4nUo93lZ38/64XwWUYuMr1fA6lTo8F9+OWXejPUMxTvJv4dgve3t77Ec7Zt3d6i2gAJf5t3Dsl72L9nlv3XzTfacER5XC/Sygsl512jdZWI6k+87yL2HJnd29LvvWad+8PKM7Q8ddVwn3ccDg+zHrb5t0Z+i2cYVwPw+oYLWYD8nDc0B3nVcId0vuVLDq537MZxbine6afR3uxwFfeBtEq/1vt1420VnHuSacHkC0i3eKN801oSuDaBfvFG+Wa0JXBtEu3infcb4XujKIdvFO+ab5XujKINrFO+Wb5XuhK0M1ov2dO4uRdMxxvhO6Mthrt/dOD0zznXBXhq89i/ZNHCWgS67znXBXhq+8DOvQwDaWTorRHeP8U7grw+feBnMebBc3Jqt0xvkn4X4VYI5qskqRrvJP4R9MaLbv517rnW44+jDcTwP+8KrZXsnNMqADTj8M94uA396Wcyq61ZuhAy4+DPcAHZnd3NuboX35h/A8lU3e7uds5eYxoGXH+b+wCMkGj3ZktrcwWKVl5/m/8DwVg9S6GKzSruv8X1iEZJ1B6s7uXgJadJS/hUVI3nu5m6N4p0yn+VtYhETZrninJy7yt/CfDpTtind6Ypa/hYuQKNsV7/TFOH8JLXcsydh5py9O85fQcuenld32+iw8WKUVF/lLaLnjSeoB3DwFNG+Wv4SWOy7JHMS3gOaN86fQcsck9TDunCOgeaf5U2i5E28mqf7BR09c5E+h5c6TSeqhPJir0rBZ/hRa7oOnJaM1Q4+M18L9JBgmLRlbM/TKyVq4T4NBetGScY2AXpmuhftVMESPczxooleu3of7KBigt4c5Dbh1a4YGjd6F+yQYnlcnIP9jJ5I+mbwL97NgcJ6123/SeKdPzvKH8IRpqFZzGnSv8U5DLvKH8IRpoLTb19h4pydm+UP4N/Yg2W5v3o2xKs04+iPcj4NB8Te9DYxV6Ynj/C7MUwfIy6WW+EETTTjL78I8dXj8cqk1DwEHd/FHuF8Hw+FV6meciaR41/ldeJ86NNZkWnUn3fmHvXvRbRwEojA8bJvtRYqqAWOMMdjv/5Sbdru9qOkmUWMDw/neoIr018YDrO6XOiDsT20M2n4CRiKhejt1QLhirylL9WMyuvoPBhiJhLXdv8X9kaANlbXdWDt4H+IBHTHHGCfvvbV1/VmoO6zs8S3ue4Im1DLebnvvY6SLpBi8s3U81utIACvaqwPC4QPtKH+83Vgf4kI/ESffl/8/DNuZYPUDCAjDMs0ou+12CJGuJk2+7Kd41B3WHpchDMu0oty2d0NItIJ58uUeoYO6w8rjMoRhmUaUeXq77n2kVaXRGb4Q6g6Vu1dKEYZl2hC4OLofE21iDhcGHnWHuj0qpQjDMk0IXJjOR9pUGns+H+oOVdsrpQgny7QgcEm0CwvlMA2Gz4S6Q82eXuNOIFzgcpghUkZp7PgsqDvU7G/cbwlkC1wKMyTKbj6v76g7VOxWKcIkpHiBT2um7Bf0HXWHeu2UIlzDJN3EJdAuUVFmb/gE1B2qdY+4y5c059cHKlBymv8LdYdaPShFmISUrYC2m7HcE8yD5ewCXSLFGEf/zB7h/LMYI44ma9wecZcuf9v7wjMzD5rz0olOiTG8xJwv0lk7PJcedz816DnumISULHfbjS/3of1d6PiEXHWPkx9sxz9mrPMh1vBbwLUg7rItmnPqqllOjo5zOV73NK1yOH1nfSj8TQquF3eMucu1dPy95tdjPpu95nzMQv/M659Hb5D4Btwqwpi7WFnb7qpbA1hGw9l0CxGlMFjeTOdGFF6wnSJ1RyBTz7loX+c3vGA4l+5I17cpPC50lelOEcbcpXJ8DNJeat7zsX6q9xeDbzwg7mJ5/gppP20q/wLWNXQDAi/LgyKMucsU+AukHU/vCHwz9oi7UJGzEJD2pvPObD3W4GXYK8JVHRIlzV9gQuYCodjbxF/IvEsFrulJEfYwCbQY3p6Vk/aDxTecd+YOQzTVQ9wlyjHgbsTNTM+Om2YG9L1qim4IpHG8NT2SQMly24ybCGp1Q9igKo7nrQ1S12gb/rL6Sjtxr2St2CHu4ky8MSv49X3x3Dysz9RpR78JREmaP8KKDNZmZN+3At/GHRtUZVk63lQvdUUGY5GfWcxHVuYBcRfG8jvMyFzH0jMwa4flmZog7sJ4/gAfUq9lav7D6h/27i27dR2Hoih+645RH6DekiWx/62sPG/ixHIklyQTxJo9OCcJDIPg5rui9/ITz8B/5B9BPi76ibZ9V7FVvGF7xop/hGiZjMxBP9C2722kef9QMn034b8U94zEUt/RtjN5P1JoWZ5JH8U9J42epvHYvF1YmzH6Qq5LFPeMDHqW4PRWemTn/Us5CFJGcc/HFPQL+Y/H6BXszthAac/GeQP3ThybOFfN7OEtIHWNniM4H7ZyrsrZKnAtjw33ilaN0Uy2D3AB2+Wy4d4KGM1Q3oFvcoiU8bolw9YM5R24LY9ImZLgqE+kEXDzATjBpG9I9/2OHOAf2JwBrImFqrIB+R2D92uUd8CiVo8XuI9ITuSfCn5LgB2NerzAuP1az1iGQDnA/lCmZBmCxzsIpwCu5DCU4ebSlZlNSJL+gRyGMo2AYfsGoRcA6Q9luJXKDuRWJaN3IPmhDAsQ34ylgktNQA5DGWr7l5lESGYzgEgOQxnW27/ETkFcBfDBdqYM6+1fBtYf2ZsBvpjOlKG2/2tk/fERBTmiwCMqavs5YqMgbg74YvpJIGr7p471Rx4BAM4TA7X9DVkDaaN5B7ZpqO0nmBi207wDV2yvuFPbyRqgeQeeoqS2vyLY1wSad2Ctntp+tJFhOzvvwA/GT1OJfSLYlwurwE2mT1PJHCBr4AikzQB/mqjtQrCvObz6Avylor8i2NegwMAPuOvCu0vHmckaOFAnAJYV1PajRLIGGM0Ay8yuQZbO//QI9mU0AywyvAZZ+K7tZA2oMpoB7rL5RIfvy0sE+34gjQC4wXTj7voLM8P2L1xoAm6yen/J84I7WQPXyJoBzjazKEPWQAYYvANnNe6leEWw728M3oErhhv34PZvjWDf5yhnAXB84+71iIusgTt4pRf4ZDYxzOlh6lwr7iOjDnhnMzHM52Eqwb5/4FgV+M7gw6k+UwcI9l2JnDrgaDXDz92MrD+uR5oRYHJVxuHok2Df1ViaAcToqozDr8ZkDWzA0gxgs3H3FwV5IWtgJao7IGK2cff2p2U92Lesqqp7NYzf9d2Ltqoqg59cDueCwDcz22iOg33Lqun6cYyyxjyOXVcbKvNUd7jW6hEqccVe1kBZd8MY5THz2HcmajzVHY7FoAcIrnYVbAX7FnV3mWQP05B8iXd4qg8c+gBTL34YCvYtm36UncWxqxOu8FR3uFUwlPGRNVB1Y5SjxEuX6kcc1R1ODQxl8s8aCHU/yfHGNAs81R0+lQxlMg/2rbpJzjN2pW5AdQcsRYZ5GcqkH+xbNBc5Xbw0ha5FdQfsRIY5GcrE1LMGyn6SZ5lWN/BUd8DMBSYfQ5kh4Q2RF3U/y3PNfaVrUN0BIxeYXLyInXbWQD1ESUEcKv0b1R3YXyBTJrusgbKfJR1zX+pfqO6AhT3IVrKX8LC9aGdJzdwWeh/VHUh/DzJkH/SbcLBvc5E0XRq9j+oO7GkiqSmjrIGiT/lzNfaF3kF1BxIPcs98xT22mqh6lNSNjf6FjEgg1TzI9EtMjsG+obNxtSB2hS6hugMpH6dm/cU31WDfwlLJGkpdQHUH0j1Ozfk0NdWsgcral6Wx1lV4/BF40MzTevaDfRtrpf3V3OhdvJoNJHY7tci2cU802LexMWp/uLwTRw08IjDQXGlMc/3RbGl/buxamW0LAry76N4KydKcZtaA6dK+vrwTfgRsVbMGmXQJyry03/3Y5DIT8LjI/SW7WQNVLqeCa8o7+UfAJgONu9Vg3zKn/+mF/2LW3YFHVTTuNoN9TV1ZSvYd2ly++gC/zDTuJrMGQpfhrscQ9CfW3YEH9TTuFrMGsjhHXXlFjIVI4BEljbu9YF9zSQMp/4fXAuRopnE3F+wbchu2/7WXxMoMsF1P424tayDHYfvdj1RWZoAHlDTuS8ZSE1TnOWy/NpV6hUNVYKuZJshUsG9Wm+0PPz1O0B1w3zS0JakyhrIGQi9uzJUu4lFIYFEcuyowvVwyFJqg1ld/2QddwgMEwC3x0pZ6jCA5SDPYt/IwbF/bvPPmL3CjsNP/WMwacFl8Ov3C0x3Aoqmr9FgZzA3SHLbn8KmZ+NoM4e4wKg5N0FfEY9sL9m0y+NBMf+edu0wwaOpLfUXCnsVg32wy2x9zCXqSiwCmTG2hr/hiazJroHBfcuZSzxH8fkGCQZerYQy3uAn2tajVD2y7A3crO3uQBPva8jmaYdsdEJnaoFc4kLKWNZBxsG+qoxnfxxuwYO4KPZ3ZLjN2+iiCfT9kcvuAkBkkLQ6V3sJxKsG+hvX6hm1euDUuD9o5TiXY17Ax6Bv2IeFR7Atdwh7ZDXOjDyHY95YcBu82f4+Ru7HRRXyfJdjXvFjrK55UhS9xKHQRX2ftZA04C/bdptHj8dmKpMxt0G3cv9KRaNYAw/a7Bn1BPiTcGGv9C0vuBPtmYQiqXFSFE0Opa3D7g2DfHEyBwQxcWLcfw1TGQtYAw/ZVpoKNGeRv5boHU5nv5jSH7ca++zxRLNmYQeY2nKIylSHYNx+xZPcLOZsbXYmpTOJZAwT7bhRLBjPI1rbSzlQm5awBgn03iw2/0cjTttLOVIZg3+w0eix+KrjNWUStiakMwb55aZSQU2TmoQ0ZcmUeTWcg2DdVDa8yIS990M3YLRgrfQjBvglrSCFARtLsPyVxBPvmqdHDsOyOb9z2n8n/FaSZNcAd99SrOx+++OB02SP5KA6CfTNW61Gs7AkgA2kue6gm/jI2wb5Zi6UehTNVfOPuZmXyDU6iWQN837dR3bmnCq/956ukL/P1aWYNCIxUdws7vjAtzf7zXcKLkAT7ujAHzlRh1SXdicybNKsVwb5eTEGPwaNM8FikPqV6TzvN42eCfQ8x6nFIh8Bh0t2RSXnkTrCvK4MepuBnhmNMpSbvItsR7AsjLRDH33B4kJroyD3NrAGCfY1eVWUdEm62PRLfco9pZg0wuj1YyTokzLDRtj/yu+8vWI1h++Fi4fICNiyy0bZvXifweNeLYN9XdhciU8/FgzFG2vZNL+yZf1eTYN+UDdxkggEWlmQ+yQYE+8Lgygw3mbCbXu2oZDWCfXGoSo9A647dxNSvpF7pZB2P13gJ9r1m9lCV1h0ukmR+GORvPheLCPY93ZTzbznMs3OS+m6SNQj2xRujh6oJP1kAK2ZDJ6nvZAWPWQMM25eYvKlK6w5fI5lV00iP78oS7LvE6tMdtO7wNZL5+34qwb74yebYndYdrkYyL3q5j2Bf/GBzj5jWHY8bzY1k9LkbwGOlqSHYNwG17i/hxySRvvQf5bgpyiKCffEMMWR5ugSrYq02ySKPWQMMZlNw0f1xTRUOsmSuVLLAY9YAw/bVLC4m0LrDzbhdl5dlCPbFPTZjCGjdkXVO2A+d3ECwL55rzKeTgWmN2nWR3zxmDRDsu4XVwQzfzbBJtDpuX/im6vFwgmDfjYwOZmjdYb9arRblB4f7ogT7bmdzMBP4EMd6k9mj1Hfyk7uge4J909TqAUj6xGqD2lbKv3x+ySHYN1Ux6M7IIICPNZl3lXzy+SWHYN90XXRvxIfBxZrMu0beOK3tBPsmrTLezcCuNPe1U51BJlbbCfZN3xx0f3yeI/cVyA+9vDO62vYogn1N6Gx/V4VVWdR2HeUkpSaEYF8jCt0fn+kwuPmRcHFvNR0E+5oxWv6yCqOsr7d/mkWs/pE+iGBfSyq2IfENtX0DeeVs4M6w3Y5Zd0Y2JJzUdpV3Bg/GHkKwrzWt7osjVTip7UGstl+PyCzYdxzH/L+DxKD74kgVLmq7VvLGy12vTIJ9x66u9FNRdUPOX0Z63RdHqsg3TuZXcXfTuOcQ7Dv3lf5WtPleyCp0VxypwkVtfyvuXhr3HIJ9h1KXFG0G/74z/uC4pQoPtf2U4h716fII9o1d0Lsa+//GWyqOVPHO08L2/61z8nGYQ7BvF/S+XO/djkb3CGBLRmep34t77sEDGQT7joX+LdMl/kp3RfAvHNR27UTyP07NINh3rnSVPK/fjrq3WoD0ans1tKaK+6BPlEewb2x1tSyDcypW3ZF9bQ/tLNKZKu61Pk0mwb590Cv+Ru8jq+7IvLZXg4hYK+6F7shhlRtLpwfIh7bupQAphF99Ne32invUXXmbT8y132nUoa27/U995PI2RzFEEYvFfdSdeTpZjJ3vc+QvFXMZ5Fnbq8tBGYujiL1oEDc7gUPhfgP008hcBjkeCzajiNni3ukSgn3vGyuC0r5UzGWQXTxKM4sYLu61LiLY9465IXXhu4G5DHJqPz9Ku+niXuktBPv+oQvkpV0rmMvAQtewpbRT3P0F+14KTh9+GpjLwMBhzobSTnH316hOFXtDv8XAXAaZXF5qZhGKu78Rc2w4hLipMxh3jbTFQp+gmkUo7g7vZfaB9aHbZvJlkMGCezWKUNwdrnWPBSk7ixpyf5H0b9QKxSBCcXd4IXOu9EiF8Wo2kvuLlAd96zosirvDKJXY8QF4X8F7TNjPRc9WzyIUd3cjB5EhqCqjqzO3Ie03BDC0KFOMIhR3gn05dD5jG7IVuBULPVXoRCjuBPsywTrnAKwQuFXpqapZKO4OL+jELugPXPS6aeKSKvbR6pnCIEJxd3i1/nawLxENtxQsQ8LeYWodheLu72bOcrAv4Wo39CxDwtphariIUNz93amPjS4jqeGXyDIkjN1MraNQ3H30nluCfXnQ5OjnAWzv/SP9m6nhIkJxdzI13hjsy4nFjVV3S28IYwuTv0T3VFEo7l72PbYG+7Jr9EMgGRJmBu69CMXdwbj4Wmx1JW4JHPmNWuDNeQP3chKK+w2Z3rH81Ac9VT73ey/6wtIfADYx1x4sa6JQ3H/LNh3lVrDv/9g7F+zEdSAK9hZatjHGP+1/le/Mm08CwWCBLPq2bq1gMiGFLbVKZXBT5gmaChfdSfkF9zCKUO4/cNw1/GoNlMdJkaDXZLjoTv6yBi1Cuwjl7lZCR4d9a/3SnDQfXHSvjlaL0Eeh3H/gZvlgM+xrFJjlrqCqSH8BJAkX93NcRCj3W/xs/G2Ffe2Cciqs15yA/NAkC7OWICxCuf/A0cjeHdZebYMxYjppKszLkIIN9zYK5X6Lq8M2P4iD2RUZsMNhmgyb7uRf59f2+mZ9cvew2N4oBABZh5OmwqY7KbUoM4hQ7td4C1z9bA2gYP8ladRUeJEqEYkB4K+nLrkz7JuK9//xVVPhRarkzxuf3a3U+uSOMsJhN+zr8F2p1VR4jIlMejjtKpS7pxVgsNaAhyMFZ80GjzHVQoFFmTYK5f4N/NmNx6w4i+3XNIaX3mdNhRd2VE+vR9NHody/cDB1jRH23QD1ZIGmwluya2c+3u0ilPs3GPY1jdkiwUnT4I5q7cRGD+YslDu6V5y0BrC/YS+aBndUa+esBzMK5b6PFn8ddD2pB2x2OBfNSBDinQXF7f7lHuA3Uo2GfbeAiwEHTYNnVOumRXG7f7nDx5zshn03QJtHPWkaPKNaNRcYt/uXu9GV3r3MqOOPOCfJLrpFfR838owYYNxOuZvGfNjXw1jqrFvU+KJIHnPCcTvlbhm81sA/kIoEmpFWiGdmILdT7naZEFsDX+B0lzvNBQME3mn0SEaz9wBS7pWGfTeAiQEPmgQDBPVyQXI75W4TsLDvBiAx4EkV6a+AbIK9mzoafmqh3NkauAXilvJVt6jl80b20UO5nXJ/EYZ99wERAw6aj16IVxa9xfYHh3J/AYZ9EwAoEpw0CdZlKqXDcjvlng7DvomYLxIMmgTrMnUygbmdck+FrYEXMB7tnDQXnIV0TKOH0UbKXe/hR+4Owr4b2I4Br6pIfwbkLkjvdz/cbv1fTLkz7LuN6SJBoNzJ58Ygw2L+64hyZ9j3EYavuO10A8cfOGJmDHKx/65Bub/B2GgZTtNsM1nzLAaMcrcOyAeOpLHqYYwAC0mUu/2wbzPbPf/6JAaMcqqcs5AuOekVEE8DlPsufLQGwsV2ueZxkQCk9Ue5e2TWo+ghtoApd+Nh33M035z8UAw4ai44C+mTTg+ijZS7W7kXk2y3QNTit4oEOEl3Ie6Y9SDCijG8SbkbDvs2E8o9T80oP4B6MGP01x+tXgEiTcr9IU5aA2FAuqG1m+UHQNtlHHR3x6gHcUE5dkW5Ww379jFhBLMQiTFgoNOHkxBnNHoMJ5hPNeVuM+zbzXiHp25fNZAezcx+4oixB/cmUu4e5V4s7NuMmNmDm00CoA0zo584Yu3BPSw476OUu73WQBgibLDserwH5/whr+twxgi54E65b+Mi7HtaoVPD3wfzcWYheYrJGQ3kgjvlvoWLsG87o18S8r1IANOFpNx9MWIuuFPuxSg/XB5Go7sACXzFgIEG3Rshnmj0C6zjEJR7UeIQtAxDtDu/k0S3gsmdR1RdMeohDEK5+5L7WGz8cbU9eZ/EEEUEKPorxBGdHkEnlLsruS/lwr7mA5VJhBHp74By98SsRxBWyt2T3AuGfSG+gZJoZxGYojv7A47o9AguQrk7knvBsC9KpzKJfoV5QKPc/bDoEXQiQrl7kXvBsC/Srm8KYYiUO7kF8ebUsIoI5e5D7mu5sC/YvGYSzUi5kxtwTi7fXJpKuXuQe8GwL+Ctrkl0C8IR1YsQJ5yBF2Uo9/9xH/Y13UhIoo/25c5ymBdiAF6UodxFnLQGuhm2bpZEGCh38hegGarbFzvKHVzuf2u6oMvRNcWAKXfygwZ5UYZydxH21SGiv3gk0a2m55kpdydMegCL/IZyR5Z7wbCvhy2DJM6RcieIB5jO8hvKHVju38ZNsA9vVhIDptxJgTnIr9Av5Y4qd7NhX9Nj+km0s1W5M+jug7PmZ5I/UO6gco84rQHkGPBppdwJ1BxkJ19Q7ohyn4yHfU2ncZIYIuVOgELui3xBuePJHSDsazpq+aFVqRPlTq5osXdTKXdcB97sKHr61vrI4a2BcicH9yBDlG9Q7mByR20N7GN0HAOm3MkVPfLZVModd99xK6DlZ6c4hTBQ7iQ3QXPTyHcodyS5w4V9Tc94JtFMlDuxvp06yXcodxy5Q4Z9HRUJFsqd2ByNvf+xoNxh5P67NQCzwozxsybRR8qdGD6deuNHyh1E7sBhX9tFtBTChXInZmO/nVxDuUPIHTzsa/pHTqKZKXdiNPa7yBWUO4LcHYR9TU8GFTqze6bcyYFD7r3cQLnbl/vX7DdSSQVqpj+Jc2R+gNhrhq1yDeVuXu5uwr6mB4SSCCPlTt4keHhwp9whhr6D0Qv1HcWAO9iCCAG4gmmVWyh303L3FvY1XcBM4rTysg7yOr2LB3fK3b7WulUsY7RIECl38irBxYM75W49kdjMYhybMeBmpNzJa0w+Htwpd9tbiQFCFLODGHCg3MkfevzDqZS7+SHA3u5iO0QMOMpulHInfwj4h1Mpd+PHd7pFYICPAQNnu4nxVZm7ZqTcM8gddfqvmQQKo0WCSfbh4G+Z2FyVaeQOlHsOuWO2BsKAsiJjPga8yg4Wyp0ctCozyj0o9wxyh4zd9rbHH7FiwHuOCcyUOzlmVSbIXSj3DHIHfDLtYPUAGwOm3Mn3VRkX++uUu7k15TAKMDaLBM1c8FY1vAU1clv7dfFxoNxfmAapJ+xrepooZ5Fg0HwIAWbRRGweYKLcPzLHjdkIw48BD5FyJ/mNaHeRjnL/QGsAPTjgMAZ80gSsbqCRDLSalVbuQ7nnkDtgO8V4KmwPC1iRgDl38j9RE7E6B0m5W60ewi+8W40Bb82YNpQ7+cWoWQlRNqDcM8gdU1HYIzN4MWDNx0kILr0mYnY7lXK3O9fX4i+9rzZjwNO7L+NW55qJueOpi2xBuWeQO+624Al/6d1oDHiRG2bKnbw0CGk0K0O5Wx/oQwzMYMaAJ80HWPCNvOND04FQyt30UZwGf+ndaJFgkO8MPgabSWnFmD2dSrkD9GuRou7m/zM3jxP0XpZZyXuoqp+9dcrd/MMmzHVMwDHgTjPBA6rQTJqG4SF3yh0iXItxkSrW/+lNDDhoJih3aM6ahuEhd8odZMAD7VYmuCKBpsAzTG5pNQ3DQ+6UO8hotosigc0YcDuLyEy5kxeOOxifm6Lc7V/z/Juzg6V3q2ORo+bjLASVSdMwXpCj3M3nUBgDPphwGTQBnmFyy+BqVYZytx4y9BYDNrrs5eddnLxO5+uTQLlDWcdBkcD+d6j1PwMCMeUe5BGUew65AxcMGQMGRAgqs+akl4dQ7hnkjrvTdwcfMWDL+9ZvwXuYoLloTkZ5COWeQe6oM3rbdPhv/lYnTt+Ek5DQnDQnUR5BueeQO+bpmsf0+EvvNmPAHl7Gyas0zr7lq5e7zZv6H+IlBgz5P/8QTkIis2pOLvIYyj2D3AGLVk9xUiQY1B/4v5ZqmTQnqzyGcs8gd7gW7S4YAzYK/i+lWgbNSCOPgPuB0OSO/+DIGLAxOAmJTKcZ6eUxlHsOuWPd/5aAkxgw5qbHFq0QVIJmZJLHUO455O57WMNDkQBwXGmTkxBQVs1JlCdQ7hnk7n3MmjFgM3BYBpnJ3RtclXJ3dkCSMeD38PY2Tl5icPclX6Hci6VNupMWwEeRwMsXLv5rVLV0qkgypNxVh09FCZu54CxI62Dp3cVSmRBUGnefg8rkXswgYSh5DJMxYAuwLINM9Pc5qEvuxcbu+lh4FsRHDBh+PJV37MEy+/sc1CT3udhi+/KRWZAGf+kdPQaM/xuolotmZJKnUO4Z5F7esdNnZkEYA/4wjA8gc9aMRHkG5Z5D7oVbA2GIH5sFcRIDBi4SCEGl03w08hTKPZvcx3Jy/eQsiJMiAWwMmPupuIScFpCnUO5Z5G5gIrHcLAhjwB+D+6nQaEYu8hTKPYvcVwNniQqenmIM+ENwPxWZWRVJhZT7L87FlruHaGQWxEkMGHAsEn/Do1omzYjsgHK/xvIhl9NqahYkXAQeuBhwEILKoPlo5RlwP1PNcm9mWxdDMwZcHPZ+oek1CYT9VMo9B+FibxaEMeDCsPcLTadJIOynUu4ZOEersyAOigQT0NI7/rtSvQSHnwPK/V26xfAsCGPAxeARJmg0I1GeQ7nbl3szGT+GyRhwGXiECZpZ8xFkD5S7cbmHAWAWxEEMGOPGWy654zJ7/JKn3N+gjxCzIMHB0jtCDBj/HaleLpqPs+yBcrcs926GmQVhDPhwuOQOzaD5uMhT4H6ouuTejFDHMD3EgI0XCbjkDsxJkURIuR9JGCLaLIiHIoHpGDCX3IHJqZZVdkC5W5X7aQWcBWEM+A4eH9jIZ2/Hlj1Q7jbl3s6gF0MzBnwUDMuAk1MPsgfK3aLcwwh8DJNFgmNgWAYcTQFl74VyT+QcsWdBzg6W3hv9CCAzEuToMXeUvRfKPYluhb8YmjHgF0HZRiOUO+WeTDO7mAVhDPgAGiG4TIrkQcod8JF3ZJEgZRfaDrw+FZyBcq9a7n0UETezIA6KBLZiwPiDSDUzaD6iPAfup3It96+wr5NjmIwBZ4TtAXAGl58Eyv0ptwPiXmZBHMSA114twEFIdDKaJcg+KHcDcr/TGvAyC9LjL71biQE7eA+qmU6z0ck+KPenvwKXCmQMGC4GjP81WTWUe5Vy38opOjmGySJBFlohyDSajV72Qbl/VO5Pth2dzIJ0i6Dz4Rgwj6fCo/kYZB+U+yfl/nRg0MssCGPAXJWpHMq9NrnvOOrj42JoxoC5KlM3Pl/iKHfLk4JljmGySODoD5q8giJpkHJ/h6TWgJNZEMaAKfdqWSj3iuSeEMZ1czE0Y8CWP/sEJApJuduWe/pTrItjmIwBv0zAHzmqGcq9Frmnj367mQVxUCSIvX6CgL+qVTE55S47odyPkDvi5AhjwNZjwC3+ola9UO5ag9ytznwzBmw9BtwJQYVyV/9yt3xakzHgT+9C45w7J5Q75X5FY9xqc7GxSPyl90N2oTkQ6ZRJM0G525Q7QiGRMWDTMWDjDwekrrs6KHcsnWU8hom4r2x0F5oDkeBQ7upY7jgzgAtjwHaLBI39lz9Cud/DrdyxthAZA7Zbi2RBDBLKXb3KHWCxnTFg89sUHJnBJcWCQF/vlDtiMSuySGA1Jwb1EkhesCDOcYfa5Y7aup0ZAza6sYq/llUfGS0YZA9wPxag3JEfTBkD3k08aTkC/lJWdXDNXd3JHTtyyxjwfqag+QB6MSeU+z6cyR1/GIRFApMr72chWFDu6kruDsa4GQNO4aLFcPHRqgnKXR3J3cMBTMaA01hazQbj7q4YNROUewm5e2gNFI8B48d3ih1YxRl2JqxC7sCL3B1ED49aT8bOZpbcV+WyuyMod/Uhd3hDMQb8OmurmeCyuyMod3Uhd/S1hQ0uLBLs46yZ4LK7H3LKfZWdUO7Jcne+K8gYMMgONJfdgZgVSYOUu895PsaAYaZmwL8Dq4JyR5c7/kkcxoCRagSunyR8QbmDyx3/DP0OWCQo+annzR1e0ARwttJrkTt+/YoxYLSFd7bdYfC5HFeH3B10axkDzsoSdAOfD3GEcncpd/T5DrMxYOTZo9hqBlj/9QHlDip39Mlsw0UC5FMDJbZVT0IgCJoATPHZvdxb6MEO80UC5BGkXg8HemOiIjrKHVHulS3JvPB7rffwwEVVeVCViHQuT69R7j7JK3evjc1R7+PyOY4UkbvKLsAkQLnvAu73+guvMeA56MEAL1tVxFkzQblT7ki/1984TW1mGInkxAw+g+ZjkefA/VSU+y7gfq9/8VkkyGB3TszAMyiSByl3yj07LkdOl0bfhEeZ4Bk1AZiFOMrdJ8fI3eVhsdjqm7Axg86sG0Abh3L3yVFy9xgDft/uvHMPnDS5oySFKHefHCd3h4G2u3Z3ucVG7hM1BZTpV8rdJ/+xdy7oyfJAGM0WJogIiGT/q/yfr/17VwuC6VzOWUHt4DFMJm+eKXd/YcCb7W7mXAtcR/YjpyUYkwByX4S5uv7EXxjwZruTQmCbLPuRlmBMAsh9Eebqeg13iQRb7c6wu21asSRC5I7cn4m3MOCSZRNWNtlgu1qszL4id59UkLuzMOArp5k8ruZg3ffFsnKQu09qyN1ZGPBGu7Onaple1mDkTDJy90kvf09rbLm6ze7sqVrm7PGHHLn7pJbcXYUBn9lTjcokO5KWYEsCyH0R5ur6C57CgEfZAudU7VJkFTYOrSF3n1SUu6dEgkGeh623mGjIKmyMyyB3n1SVu6Mw4E42YOVYOqxwi2HnIHefVJa7nzDgo3zD0hcEHqZ1+DOO3H1SXe5eEgk2HVU1MkUBm78wJtJlkLtPetFFY2bZWrI8jpVrHOA7o8PtFeTuk17q4yQM+Hnj7k0CrUwOd1SRu0/+Ru4+woBHeRxOMhmliL8dVeTuk7+Su4tEgpM8DCeZrOJwMAq5++TP5O4iDLiVTzhc0sFPWn87qsjdJ0rlbiQMuDQs3aPR+Tujitx9olbuNsKAL5mlezB6f3NRyN0niuUujYHW+8jSPRiTrMLC5SzI3Se9rKcds+yF+TDgjqV7LGZ/Q6/I3ScPyT2Vk7wRPZGgHFi6xyK7O8aE3H3ymNxTmlupQ9ZemDmzdA9F667pjtx98qjcU5oaeSd0GPDI0j0UJ3dNd+Tuk8fk/sqQ5Y3QYcAdS/dIjO6a7sjdJ1vknsqH1iInEpSGpXsgLu6uZkHuPtkk95QurbwROAz4wtI9Eu5ihJC7TzbI/ZVzI++EDQPuWboHopUdOaa7WHt8kfsi9Na1TV/os7wRNgy4JRwyDidxFi+D3H2yg9zT3MkbURMJ5kyuexhGb5cqInefbJH7B1MrbwQNAx64kikMF9mTU7qPUgkgd/1sk/sHY5Y3YoYBtyzdw+Dtxlzk7pO95J5KL+9EDAN+b8x4e2eHH7TOhiGRu082y/2D+Sh1yA+13k02ZtoE69D6pdG8bY7cfdLvaZzpIO/ECwNu5RVnyzr4wdnZDzhy98lecieR4GOfzV32CHylyK6UdA+lEkDu+tlZ7qHDgHsOMgXh4GsmypTcOev9V3KPHQbccJApBp24OqSK3H2ys9xjhwFPTEPGYPTVl0HuPtlL7iQS/OMo+6M8zT4ks6+zasjdJzvLPXgY8JzlH75e2uEnjasSI3ef7Cz36GHAPdOQIehclRi5+2ST3O8zRgwDboh1j8DoatccufvkiXJP5VPrPUoiwVle8BYKC1+ZxVO+TG8pBg25/5XcCQNu2VKNQOOpLzNZOpeB3KvLfVEiQYQw4AtbqhE4iaPc38lSjxS5K5B79TDgdkqLsLXXxpbqI1hrvzXpN+xkGLczcl+CB7lXDAPu5rQAe+OQQZ9NzRRXrbfG0HgyXyAFcr8RBuw/kaDnlGoAWk+tt6OhHilyry53NYkEl/TXlMydHf4ZPLXeBkMXpiF3BXJfFgbscSy8J/jXPxdPj+3F0HiyuX/udbSK6I7cNYQBtyX9iqkWJqPu6zBZ5CZdx+SHeaUvyP0WzuReL5HgMKf7GDu/KCJjgpVYm4o6pzsYm+z8n2ZE7jdxJveUzo3UIF/SfcwthBh1X42xYci7JTbZl/lHOyH3W3iTe0p9jmD3UUR8RX7DD1ydZjiYGU9G7mrlfi0M2OHtdA19GfccxdEp1dHMeDJy1yv3lKZWns/htt1NflcOCRZjs8Z/uyDJVi5MQ+6a5X4tDNhdIEvj6qUdrlBcXZfbyxNpL8j9C3prukDua8OA3d0sPfj6OHCF1tVB5EaeSVeQ+1fcyr1KIsEl3cPaMVX6Muuw+AM+ptuYm/75Rh6Q+1f8yr1CGHCbbqD2H0tfxhSzr42VVkxcmIbcDcj9Rxiwr5M/vjqycI2DqwyhOcuTaWfk/o5zuafSO56H7Fy9iMAVBl8vm2cREfUXpiF3G3JPaW7dZojNnGPyzuws/vMkIqL9wjRzIrhOALmnNDVel+5HT10muMbB19I9VTmBMiH3f0SQe0pD9jkOOfma3IefDM6W7uUgFTjOyD2lGHL/SCRwdoVRI/uSYC3Wds3vfbf82D33BbmnGHLfGgasddZ9lAfQGgoLO7be1C7dK9ldmhG5R5H7tjBgrVcYlezow8A1Rm9L91RaqUI7Ifcoct8SBqy2L9N5+jAQ5L7ck9ShK8g9itzT3Hnry1w8fRi4Rudu6Z7SOUsVco/co8j98TBgrfMy6eDpw8AVJvG3dE9zK3Vozsg9itwfDQNWOz84elvUwU4jUWoTZt63wOrQXpB7FLmn0nvqU5cs6+GQqiV6eQzlp9VKn6UOp4Lcg8h99zDgdB9bLVmGIR/AWgSBNCt1Z2gL7Bp5QO5R5L4+kUBxB3OS9Wi9ZhMeGXU37KKpWut9Qu5R5J5K9iL3B1qy2tuxsNO+itZMpHqh3B+0M3IPIveVo7aaJ0xOsh5u7DBFlkewcVyt9FKJviD3GHLv3bzizrIW9XttcOP3200z8dsWWB3yiNyRu626Hnwu6WDz77eVodfpIHU4TMgduVuq6yBr0TvZCXe2VB2/og1Z6tDNyB2526nrTNPdO2dxvKf6QjlJHXJfkDtyN1PXg98VHXweiXI99VovkWBE7sjdSl0Hz995eC2x6z3V6okEyB2526jrzKS7d0qWF5xXuq/Wei/IHbmbqOtBVkK8jDU6EbfnVD9RqiUS9MgduVuo60C8jHdmeQJ5Tluxcx/md5ozckfu+ut6cb6eg5RacT7s/s5YrfU+I3fkrr6ujftvfHgm+cBNdIbOMGCjEvgJcvcg95PsSE6wGmM/4JobM3XDgJE7ctdd17OshItUzTFKmMZMzUSCZkLuyF11XTnG5J8mTmOmahjwcUbuyF1xXY8cY3JPL88gq31PqxkGjNyRu9q6DhFe1YNTskiIo0x/EQaM3JG71rrOsicJ1qL1m/SK+uf3FlO1scgJuSN3pXVtZB3sqNpjw9LdVMbMX4UBI3fk/mBdDR1PZ0dVJ708hUZ14ETNMGDkjtwfqquhQTl2VHXyrKX7MammYiIBckfua+tqrOnOjqpSOnkYm/OQ9cOAkTtyf6CudprunFFVyiyfCLXLUjEMGLkj93V1tbWoU92EjUwnEdvulcOA7UrgK8jdi9zHMPMTkSlZQrbd/zG1ohfkjtyNvLEHfVQN0Ee209iIViz8+5C72bpm2Y8ugU42Ld3N39FS+iw6Qe7I3Ui8DOMyaullAzZDZrYlEiB35G6+rj3jMhF43tL9oH5T9aEwYOSO3M3XdWJcJgS9SNxN1QfCgJE7cjdf18K4TAwa+UzEk8mrwoCRO3K3X9eGdJkQjPKFkKFCcyuLQe7I3XxdjzyrMTiIhD2p+kAYMHJH7ubr2gdsv4ZkEok9MrMqDBi5I3f7dZ2YhQxCKyJhcwjWJhIgd+Ruv65F9oLLmHQzyyY8DES+hwFXw4YEvoDc/dQ1y04gd+WcZBOOOnLVwoCtSOATyN1RXVtZA7OQdilZNuEpe6LPchfkjtwd1PWE3KMwCHZ/Y+7kHsgduTuo68DDGoaDbML2xUzrwoCRO3K3X9eJhzUMW2vt5DDTkjBg5I7c7de1yCqYhbRMh90XJhIgd+TuoK7IPQ5zxu7LwoCRO3J3UNdW1kDor2kGwe6LwoCRO3J3UNej7ASD7gbYqjJ/dn9mGLAZCXwCuTuqay9rINHdNpNg9++Uk/wAuSN3B3UdZAUMulvnhN2XhAEjd+TuoK4Tco9Eydh9QRgwckfuDup6Cf/FjsVZsPvviQTIHbl7qCtPayyO2P33MGDkjtw91JWnNRYly2Zc5cxcCQNG7sjdRV1bWYOLy5JjMwh2/yUMGLkjdxd1XSV3jqg6oH2+3a0OxZbX1jtyR+4u6toh92DMWbbj6G6mn2HAyB25u6hrj9yjMcjTORi6NfuvwoAPIUeHpwNy/x9Tcm8SmKCCvrJdu9dLJDjOKRhzp3TZ6FPuo+wE4TJmKBXslY2ORNYNA+7N9q92Pk2A3LUfUU1gg7PsgZ2HXG8YcGP4N3DPYSTkjtzByFEm00MzVcOA2yCt9/vHCJC79vyBBEYojVTgYLqnPGSpQ2f637RP9iZy135ENcgaxAOT1CCbfiKqhQFnyx2spT+UyP07yB3UP833GJJlqoUBN+fkmKkRQe4/Qe5g8lYmF433iokEreHZ0d9/IZH7NZA7mD2oav0808f4Hj+DW8ZKkftf0SD3mJxlL/xOvFcNA862e1hXGbMg9zvYOa6I3E1xkhdYk6oJA26cfYOmgwhyvwlyh2dRDvICrZlfGau13h2NRc5HEeR+B1NyN/7+HY5LlneYmqkVBhwkkaD0WZD7PWzJ3f24rjfO8gpL0jWZV+xRLHzXQe53Qe7gou0uks2Pcu+YSOA9DHhqRZD7byB3cDDt/sLRfMOBMODF80XI/XeQO1hP/3W0eK8WBpwNt977LMh9AcgdkpnguAiL9x0TCXyGAZ8bEeS+BOQOKZm5rSXEbuG0n738hQFfWhHkvhDkDnauSA8xNpPSQCLB7RxN5J6WgtzB06aqj4BbwoBv/eghd+QOK3C1qerklP2FMOBr7SrkjtxhJW5OqroY9SMM+HrWAHJH7rAWX5uq1kf9qocBn9T/r0ovgtxdy93MGyT8/mzTbyAMeCljFuTuXO72W6lhuaYp+g2/MhEG/BrLgNyRO2jlIFdh1I8w4N8D1ZC7UrlzExPcDncP3m8gDHjBp0fuauXOHapw507VyP2G1YMi4Y73jo0IckfuoJzrA5Fx+w2EAS8a9kfuyB3Uc5ZbhB/1Iwz49qwQcg8hd/vTD7EZ5Abx+g2aEwlKWoCfKX/kriLyNYFpnuonS/0GwoBrn89F7s9gkp1A7uZp5KlY6TcYCAO+pJu4+h1D7sgd9mCWJ2Oj30AY8B90oJC79liRBJYZ5Ono7zdY2WXMNxzi6AcMuSv6VE0CyxykArr7DZbmA2+E83hpPSH37fSWSgB+uzJ+EgnOfhMJrp3XQu5q5d5ZKgF47spYvHwoVBhwuapA5K5W7q2lEsATOcoivPYbzKVpXQ3ncXFQC7lzVwdoPc1mr99AGPCjHwi569WguPxUYCd8wG0iQSN1OM6OXkWQO3IHxZsv1voN5lvUfUkOgn2Ru+L0Afut0sg0Uh3/iQQ+woDvjv8gd7Vyn2QFhEL65SJr8dFv+AdhwBsG95G7WrkPyB0efhDM9xtecHKgs5tNH7lF7po/FOkDljnKH0EY8F7kvtid2Efuur/TCewiWmntvxCaDQOulzWA3HWPuRMtY5hJ9NI5aL1bDANe+JuE3LXK3VQFwMLD/QgkEuxGV4x1k5C7gbCoYwKzHEQ1DhIJjIUBL94HRu5a5T6Jww8FqymiHcKAl9NMZiY4kbuNATj7Rwrjchb9EAa8nHY2cfYKuVu5Etn+VENcTmIAF4kE+sOAy0rRIXelcm+RO7w8ByZo7D9j6sOA1wb7Inetcs+yE4y5m0asQBjwcg6T4j/uG8hd9bBMTmAVzVPuDhMJqi2Oj7PS1wrkbutLzZi7XVRPuXtMJKgYBmwn2Be5a/1I0iWwipGWO2HA68mjmWBf5K42WYYxd7toXbG5DgOuNhY5GQn2Re5qL2iwf4YwLBcxR3bQelcUBlzqzfD0yP1/DJ1LtP+qHJZRDNI4aL1rCQMeKgbfIPdXLO2nMglpFxNHmFwmEtQLAz4riaxE7q9Y+kRMQhpGeWoYiQT7mFXB7wty/8DQkASTkHYRsxAGvIKu/GlnKCXk/gU7QxKnBEaxdISJMOBdfwrHinu6yP0zpoYk7Ic6hUXn3dif8Z5IsGQO8T/2zgW7USSGotqCwBhjh8D+Vzmne9L5OP6AUyZ6qntXMJOGZ6GSbhWhHX9F7NuNZoT7O3IvNcMysgTdOV/OQb/1ftpUBrz9HhXh/g2dFSbXf7+qJfL6yjvIgEtxmDc3IBDu3xFaYeJ2bF08ARmMBBvKgLf7UthPZoT7d4SUkAzL6CK4n5rVSLDzbdhtaR0m3C8gtZeYYCStVhSu2HsDGbAUzdGMcL+OSstdfyCtWqR8v8iAdTjMRrhfR2bK3fW/iatF/zz1gy5B6z3Jv0c3mRHu11BqtSIf0CWuxvsRev0yY0zwL9KOZoT7FcS+xjlP1cVzkcFIcBRvvTeDGeF+Ha2v8QQvVK1IywfSGglERZ3vEhvC/R4yLnfOU3VJMyyTSwYc+maku398wv0WWoOQnKfqkmg8Axnw79OezAj3JagIRdhP1WXvKUlgJLBBrvXeDLMR7stQGYTcG6gi+/l/j1Z/LHIWc7r1kxnhbncQO0ZLUCVVi+clgQx4FPrt3Y1mhPvScJe5NlO/RqqW2TOTwUgg0npvTmaE++Jw19lcMVAl3yRkPiOBQut9mI1wXxbuUuuprDAJk3ESMp0MOPyh934yI9yXhbtYV4YVJl0GL8ch5uI8MuAn045mhPvSNBTryrDCpMvBy3EMOr3XZGi9h+3NNEczwn15uGt1ZbhiT5jOyzGGbSG0CVrvQY0Eh9kI9xXhLlWuue8MZNl5OebALYQERoKIMuBuMiPcV4S7WlfmYCCLFyR2CyGBkSDamUb7Yka4rw13qQkJWu7CeDm64C0EZMDl/56E+wPhruOVYcpdmdHLsQ/eQsghA+49CP1shHu4cJ8bXw1T7jkZvRxD6BZCGiNBDBlwN5oR7o+Eu5Ltlyl3ZU5ejlPgFsIHB/3W++/LgNuTGeH+aB6qTL+5u/4YQsUMXo4xbgsBGXBJmmE2wj1kuE++Hu7GTsrg5ZiithAyGgl6/zX2kxnhHjPcD74eXO5J2Xs5grYQshoJOv8VdqMZ4R413Fsviv7uX810XoxGSmqYwUjQ+uY0JzPCPWy4n3w9XJ+alc6L0dkVppitd/2qZB78A5WfRMJd43XGPSBP48Xo1O4T6hK03ve+Id1kRrgHDvfJ/5DifwVCLagOelLDXv+zc7t1gnY0I9xDJ2LvK2EQMjNejiFKC+GczEaCzaZNm6MZ4R473OfGi9IaCDN7OY6S9wlpGwk2O6zuZyPco4f70cvSGwgzejlGOamhugz4pRX8ExHuKnOQGCG1KRruYlJDdRnwm5tN7eOGcFeZg2Q9VZui4a57n5CgkeDtD6l3LEG4i8xB0pURZ/RyCN8n5N6KjUUeN2u2T0a4fyVouI++FroyqRm8HEJSQ3UZ8LhZs300I9zPiRnue18LXZnUDF4OGamhupFgs7Gj9mRGuH8jZrhPvhq6MqkZvBya9wnJGQm2WxgYZiPcLxAz3HtfC12Z3AxejE5DaqguA95s1Xc/mRHuMuE++WroyuSmZLgrSA3/oCwDHnfurv0rR7hrFO50ZdTZKNyVZMBN3Nb7JOcaINz/Ili405WRZ+/F6CIfDa6ijdl63+638DAb4a4V7j1dGXiizj12n+EMPSPBdq6ByYxw1wr3yenKwBPDPfoJ4RlaRoLXzVwDoxnhrhbuva8G2292Oi9GH3+27ytCMuC5z/N/TbgrFO7YfvXpvBiDgALrDBUZsKDYl3D/QOrojDuY0lAy3CX26c9QMBKMimJfwv0MKasMN2NnoGS4i5iwis+NIPYl3G+8CFpv8RudgTwlw12lr3xGaBnwh9g3zXQ/4S5QuMccBgbVcDd7xUiQRuxLuH9G6wImhtxzUDLclWa5JYwEBXcAlop9CXe9cD86Q+4QP9yRAV/c3k3lwiTcyzI3zpA7KIS7TTFb7xcCELEv4R4g3A9enJ1BArZZYsogA/5Z6yKsMfO85US4i4X75BynQlT9gI6RYLI7yP28fXMNEO5q4d55cZqwWlTQD/e6jQQpxL6E+za8eHkOBhkIGu5hZcAvZmZJXAOXFrQId61wn1tnOxUus48a7rXKgLOIfQl3M5M8TWU7NQtD5GeiPiPBazbXAOH+VF7dnSuYQDDcH1q+F25VZxL7Eu5bsHNH9gtXGIKvLAeVAY/aroHZLhP2kSPct9pNdT8a5GDwcog3oVfRTYh9CfdfDvep8UdgDrIS4od7HUaCgl8o0S//JtwDj7gzB5kIhXCPKgM+6Z0t3BP7Rn3kCPdyTRnmIGth9HK8JpgiWcVuFFvIXeAaINxVwv3Rpgw+yFoYvRxjCtnKKvpJaJ5/0W8R4a4S7p2/o1GhwScI98/Mj7Te4/c5sop9CXfJpgwLTIkYvRynLM6VVbQniV+s5T9ChLtCuH9uysgUaLApsys91NmMBKf0rgHCXWh9icI9GVLhHlYGPCP2Jdz/MQT9I/4BkXtNqP3sp5EBz7nFvoS7SjcV80BaGrFwz2IkyC72JdzFrk2lcM9HJ/i7P8obCV5qcQ0Q7sFF3RTuiem8HHYRacfWKg4zYl/C3QeTnIKkcE/H3ssx2RWQAT/nPz2w2Jdw15K4U7gnZPByjPYNjAS/J/YNagkh3H/G3FK4wyIG3acjpgx4P8UQ+4ZdRyHcf0ZH4Q7LOLnMU60vAy7oGogu9iXc4/+HUrgnZ/Ry9PYdjATPGNGXcQ0Q7oV58SexM8jGqxeg0CsYes1zFd1Yu9iXcH8Kr41/RvXADD4jsaLa2DWQAdcm9iXcn8G888+IF2YgFO4+2zUqNxIUbB+JiH0Jd6XDVAr3nHQJnpCiB5XlV4jmel0DhHtJen8We4OEdCkO3CPLgKsU+xLusSfbuDm1Bg7Ks5DxZcDjqU6xL+EeerCNm1OrYMhyKhPTSFAOLbEv4a4zKOONQDcPHuBFflwmuAx4E3qd15NwL6P5TfLFDSJbTD7bXSqUAf8cPbEv4a4yBOne6lQGsI5cA1UxjQT1iX0Jd4U7UxEPJKfJ9X03914VTWjXAOEefQiS/aXMdNnGZWPKgCsT+xLuKtnO/lJi+nza0Jgy4KrEvoR70FeUMciaGDKdqL4xV9F6F3ANEO6Br9VjDDI9Lyk/8WLKgOsR+xLuCoupjEEm5zXpoxLTSFCL2Jdw18h27l/KTdqT95hGgjrEvoS7RLZzmpqcXZ4dVQkZcE2uAcI9drZjg0zO3gvyaqupTwZcgdiXcFfI9ka1twe/MS5ztLVgJMgo9iXcBbLdlb8AYQkvyadmj5la72KugQv0hPvabOdSbHiQKfvpex4ZcKM/uDY1hPtP5tsT91Ah+LhMzDtdkhgJhMS+1xh3MYewSoa7wl7qHw4G6ekqUMwlMBJIiX0vM+2jTtiWDHeRbMf0WwOHKoarxI0EbdBfzRXMQ9z1iZLhLiI3ZcS9Bk6edtI9iwxYTux7gVMbeDeuZLgHv5sj7ugDBBcQRD6lGVVb73pi32+MXejF55LhLpHtCMMqoR4T0Umx9S7sGvjH3Ae3WpQM98h3Yb8jP1ILy+jqGZ7VkwFrin2/MjTRlUWRwv2l8T/gHYACHDyh0z2JkSBBs/2lje+jKxnuwVeXaMpUxamu+3aFZMDqroG/OwYKstGS4R58BJJJmaqYajuGF5EBt/rv4HzQMElHCfe58z+wvgSlaOoYhtQyEkiLfd84NiLXBAQJ99fW3Z31JQhq/dU4iJ+ij0Vqi33/MrYyd8CUDPfYR6mxp5Uh8qOt89EXWgacwTXQCV3wFSLcD/4Prk2FUox13ssYVgasL/a1eZC6vbFkuIdut0efVYbYa0w6n30xjQQJxL52arSu5i0Z7nE3l7h9qUa6GvsyQWXA1Yp9qw73o7/DaioEfbaV+jIBZcCd/vjj1LsT7j9oyeALg7BNd52+zANGAsS+9/+chPs6xsY3Yqf/WQhrqXpJYkWpidh3gZqNcF/HwbeikSq7oAyd17bHFE8GvNc/6nrt3An3dbzu/BZ1qUEg9sOteWqzYLwDse+C4SPCfQh6kkrDvVbG6p+ie4PZiH0XiH0Jd/ch7KI0DfdKabwm7+9qGTCugSVTR4S7uw9R1+iYcK+VPc29G/PZiH0XVKCE+1+GmGW7Yq8UynBkx/lGKYXY965kk3B/Y3i0jYVSBhSc7u6qxeiFnELse/8XkXB/Z4j5lcjFehXTVj3qfvVjGdfAErsm4f7B8EgNwWEqyFykqjfqfvFsELHvklNowv0zw6ODt2wvwZN4YV/iWzsUse+C+VHC/SvDY6teHKaCioFA9kj10z4OYt8FBSjhfsYQ0DOd4GAHfsKey7w2LK961RPnc2cD4X7G8MBHIZup8FROPFHnDizEvvdta4T7GcNjzxR3L8HzmN3ZUj231+IauPOnIdzPGVZ/6zAoA89mx9bEJrMgCcS+n+aJCPczhvXRzqAMaC2pal3IdI1xh9j39nEE4f6V4adtLM6+IPySqvY05DunBrHvjWkPwv2MYW20o3AHk+vLpCjdzeYB18D1aQ/C/YxhTbQzBAn/o9aXcf0y9X+mDrHvVdcA4X4n3Me9X4EhSHhDry/TWRbGFrHvmh85NVFRyXBfeoxKtsMHcn2ZNKX7X/UhYl+/hryttmS4r5trZ8Ad/qDXl8lTupvNPa6BK+ibUUqG+5plAAbc4Q25voys1v0ir13FYt+dX0d/mu8J4T72fh2yHb4j1pdJ1vR7aRH7LkFOH1063OfTzhfAlanwD72+TK7S/ZFJwFZ/0HjJLKj4JUJlw/21b/w+LKbCF9T8MtlK97Uzy00C18D9Q0H9We2DF6M/tn4bsh0uo+X9TTUw88bYIfa9heLXX+e5INvhGyfBBZTtObW1uAYWfackGOhLFu5kO1ygoXRfZrytodm+5IQhRVcmWbiT7XCJntJ9abynj/Yls0E5ujK5wp1sh4uMTul+n3vTbvsEFxIvnurPsEKfKdzJdrhC644cciHTsfNvNPuT/oTMw/u4orWB54Fsh2scUUqvYjweup3/T9cNpxyv1hqTjroRMle4k+2woYLAmwSVbFWscGAmUA+kCneyHW6wV7T6gb7Y96rtV7Ki+Q7ZDr/Ni+jAA6RwDVz86BMcI/gG2Q730TtS9b2BBmvFvvKy30zh3pLtcJtBdeQBpMW+98YgpRazL4HjFxYgZg/LPA6ZiBVi32RpNXgCyHa4Ty95UxoU2LldSRYjeYZw78h2uM8o/aKCptj39ukgC6q1ubVB5EImzlSDs1LsmyzbE4T7wQCWcBIefABl18CVbBccELsFS+BwAznxr3tLTzAoa5vt6bJdfUG1IdthMQNfjtXwoNg30+SH+IIqq0uwglnX7weSYt/bdYDgBMF27JhVgDX0TmOmAuaDB6Qd7QzFM6Z/MAIJqxD9UKUxs5JqxL6faAY7Q7ML+T+MQMJDiLkhacysphqx7wf9ZF/Qfdj/wpgMrEW0DUljZjHVuQb+shvtMoy5c5QKsR94GjMLqUrse2+kj0lIjlIhfOlOY2YxFYl93xhmu4jmAdPz6fkOhsfYKd++AEJi3//ZT3YR2Trm2RwN4PH5MBwz+Zh6f4Rs44+fOLogtNvhB7QUHPmYh5Djj0e7ieBSB9PtEJiT9H32oCH2/cNhtptIzg58wPUIsBbV0p0bY65To2uge7XbMCxzRoNhFYKW7izVXaM6sa97ez+oGJb5SscEJEQt3Vmru0x9Yl9vBvt1XlwLWjIQuHTnpP8CVboGZlsAZplPtGyKQOBZdzQEWzPFbLaPtgDOUz+z582B4OsdTLt/pUax78kWInjtWDI/A2Sko3EoT1Cx72wL4TwVlwwole4cqv4D18BNZA+WKIggOB3r08og9r3LwTXY8cKAykcrh6pmhtj3LqpDA5TtEJ3en8XOwOoT+652DbCfStkOT2FquP5RkjHm+ONkK5E9VaJsh+gMPLOCIPbNs8LUUbbDc5hbrvdVA7FvnhWmBkc2SM6KsUv9DF5wDaRpubOSCqLzBAxEIva9SeUtd0wyoPsCkO6IfW9Sdct9oGwH2XFIru7ANXAD6a/SfJNFkJCpId3/Y+9O0FtVdigKM4VdNKYxhvmP8j37u0mcuAnmGCKp1j8E33MVoVLtcsFosK/dIjXLLCYyuHD98Up1J9j3iTwf6kisCeOLyzeZLuoCUYN9jYfUHmSTzc0ihHSUJK6qGmYza8DusP2fmpY8N4sQVEN1t4xg31VOWiWjzExkYEpUd7NsBvs6OBHs9bpcHqhCPjpR3W0yGuzr4dZ8pcX41RBXSXU3aSi1Sl7Bvi5e2DN8HwChjaK6r0Kwr1WDlqK0I7SDiEh6HVkDdjVahtKO4OYkidtMhtgM9nVz/WbWEpR2ZOAoqvuLCPY1bNAClHZkoaG6v4BgX+MamVAO/KvHr5wvu5MA7DxrwNeO9qzn+M2Qk15U96UI9jVu0AI5p6ohL7X+w7uqz+UX7Gs+a2DFv+V8s5CRnylpc1zScxjs6y8QZdLfKp196CC8XpK4zvRYnlkDDj+3ev2l2uEvhuhqba+mpyHYt/Adp/FMapnHYA3vV5nOKo5V/QT7OskaWJj2S9OOfB21g+RuhFsUBPt6ctA9NO3I2kGSOFbd2Wwza8Drf6Y56Q80XlJ3kKm51AX32L/JMdjX73+jQburuIkK80ZdMHj/QtaAM7X2VfWMY+BBp10kPmIJ9o2w5F62jv8MIjO19tEWINjX7bkRlR3+TEn7qLL/mDUa7Ov7v8ucdME0Bni0D8loJsesAfdxV4P20AxUdjjU6gMbGQT7elNqa2Wbd1cCzyrtpcx1ZtmTNeBy3SvRssO1KWk3vg/vCPZ9nd99gLrPtRdBHEd9w8p7BlkD/oJ999yDTE0X4vcBOn2gec8j2Ndr1sAOe5DlgY4dgdT6RPMeP9i39T9s36ZxL7sxyE8D3AmZoXkn2NeJTm+WUduBbJySrjHxfYPJZtZAnJ9+TnqvsgDiGXSNyUDUYN9IH00dGRnAqrtMPNYZL2sg0p/UOTGVAdYeqpIzS7CvWZ2YygBLzJW+YzYTK9g32KfSnDjnB1YfqrJvHSfYN9of0k7vFmaLCFgW1MFDERGG7eEK1/sb96oAwhp0F6mzi421VmDz9HUdD7kDhldmAkVY2Y2RCbmXNCe9W7S5FfBrWAdTA8+XliIE++7SuDcFENlc6Rbl3W9pj5M1sHVMdcTvG+DX6k5591naA2UNbP2FmQoguFPSHZR3h6U95KLpVjnuhwKI7pT0Zw4e71CebJb2qFfEzmqJ6AHAxbq738VIm8uP4bIGvhklogcAL+vun8rBUcc5lFqHu2H/oBRL7oDD6q7U+Ri+T13SWgT7rtdLLLkD6/T6Y439znM0OmoPFux7a04cpwLeLjNdKU2373NvdB7j8NTCwr/N6L8Z8Mr/QRm370ezTXu4YN9bozhOBbxXd6X2VFgztWab9qhZA99UErdTAffVXSr7qbBj6ivZFSaBbefjoBT/TyJgsLpLlZH6Pg+NDIsY7HtjSuI4FQhT3S3U96k3XdljBvveaiTxBBMQqLpLZTsWf+VkehoTPGvg2lEbqAsgOweZkg7DVOxtPh4Mn6CGDvbdZcVdsrqUBWRU3SVV7bHYz6kzGh2TRbDvjUbsQQJhq7ukuhvnYnNj3xiNF8gpa+DaKLEHCYSu7pKqdsMRzTx66NhzyBq4NiexBwnEr+6SUt0dp7fX9b4xP2PPIth3n6GM8vnwARxV97NUt8NYvMPp2Dmq6+GDfX86SiIPEgiUALy0xHfjWKwzjX1XW192vJEyyBr4MZThAhOQX3X/qPF11x3HcWFNH7vuULtq1gO8OLtSLXGBCci3un+p/6+7GL8M3dmhrmsPizC5Zw1c60XjDgR7NRu5Zg1cOYnGHaC6R5fXsP1sriSSB4BNTO4OHKPKIdj37sYWLzABrponkDXwm0E07oDD9gmLpb7I0CnRuAObaoXnCPb19M1I4w54XomMI5dg358a0bgDbj+QQdbAA71o3AGWZqLKKNj3h1E07sAeZttPiQaVUbDvD1PSRpoCwDedsK863x5zriQupwI7GRi876nMLmvgSiOJVBlgLycG71cI9nW5fEvjDjB4f4KsAaert9keUAMM3hch2NdhFCQvpwJPjAzeRbCv20sVNO7AQ3MtkDWwnbnUZsoCAKOZu8ga8LsEKWX+TQQwmnmMYN/C5ZupBA8AjGYeI9i3KDznS/OnE/hVL5A14Ky2c38J4ELT/upTgVYbSrkfZwDLzDzhQbCvn8tLrEECyx05VyVrwE9tZw0SII1gZwfmBWeDxGkqsADNuw8ZB/veq+3EuAO/onl3IPesgevazmkqsBTNu3UM2/ep7eIKAUDzfo1g36KIUNurAsDrjqVAsK/h2i4uEQDsvH8ga+AiRG1vCwBcWL0g2PeT78yBs5IfG1iv52CVYF+btZ0Vd+CfzAeBrIFVtZ0Vd8C0kdnMAomMk3tvc/BuKmAZsxmCfa3VdvGdBLA3c0bWwBXHb2EzlAHea+KVpodKsga+OSYxlAH8YPROsO8ig8RQBnBl4MrqrYbS/mBNhqf1ADfmjpPVnxJX4O89ss71JcAXyjvpvs+cSp1xfQnwh0tNRJwsOErl2VTAn4ny/kPNlOCi1QeCfgGXKO8M3p+N23l9CXCL8s6TQD+MSfvgjAPY1NRytMpK5Jden9iCBHxjc+abMufRzP/Yu7vltGEggMLraWgCM0xmbcu2bCT0/k9ZoCTNDwQMFCzpfI+QixNmvZKC0T22IHGupWCyQs+xJkYz30cyvKyH05bEfeIGLiVga6bTHf6BgrgnxTWKvTLHK098rXsM3EHc08K31Zzvde/1furs/roJI+5xCExn3lR5HY1fG/2A4wQYEfeFIAqOzfe9LqOfl32p/7DhjhEWMhdEgt2Z3H68f/3Zzh0+ON+cuEfFt0zf8znRZEu9JyNICXGPTRh4jy+Pe4BdrR9xeglj4/5bEJk145kNk/b1VqHTz/iYinFmMhPEx3f0XVN+W3Uo9TM+poK454Lxu1apHmnyRr/jfQ6MjPsvQaxWbe6/302Ks4TQ6jecTMVYv6QQRCz7+Ux6J1ZtqQdwMhUjFcQ9er7P+vRqmdbofaj0/sqk/oR4j/urIHZhyHkAX6XzLdAZPYBFGYz3WkjB5TJp8DbfBfhE8u6NPkSq36XztiTuKQmrLtcJjYn/RoJ1q4exBIkL484R1aRkG/jI83407dwog4vMiXuKwirLEU3EeT+edpYgcXncnwUp8n1b6wOYrtZjmL1f8NYWt4XhEs+FFBxRTZi7a+FNN3gRCbUeRt7Hb8iw4I7LzAopngRp84M1lf5XdWNXa3kTKv0Ze++n99ppO67yVEjBKaY8uME2td5aaVq78vKFL/WR2lj2toMt9WcsuONCBXHPTHCDbU2lV6tNZ1dO9iZWdzUxTGdcq8fRdlwfdxbdcxSc621nTK2jGNNYOzgvp3h9sMpO+773E0+e03ZcZ0ncIeI2ervRmQPs1uCcGxfLQR+ume7Jy1P3NdN23CLuLLrjTLHVXcvOyyWyeElruv/6cAPzXdxfBEiz7qp1v5YpCUOj5+DSAVzlZRt3Ft2Rct1VzRBkIlbnjGNoO64328adRXckXnfV5lTf8yo7bU/f0zbu7EIi/bo/ej4ThqbUs9B23EKxizvPdSCHuqvWnZNH8L3Rc9F23MLrLu7sQiKXuquWzbCWewrjXjGn7biJ5T7uCwEyqftG1b4HPsu79Wl7Bha7uLMLiczq/jfwPsew0/ZMvOzizi4kMqz7RmmsC/KHvXvRThUGAiia0Wq1ahUoakDU///K6+3D+uJlETPk7I84K2uYhAfIkmUUOCrU+0cT1DD4jnvPAB7W/b/o+FhxE/aZXTl6YOfNAa/0vuMuCwN4WvdP8cpmf8veLrPrOAwcR9s9sZADI6zL4NE2zlfvUxSvbJrtakZ9Y9ex06d12u6f2VfcWZdBY1x93z2442Vjmx3sb85eDqy1y9j9ozr/XfLT21fcWZcBdS8VKTmc03YcjL7izroMWrDTH0fllrTdH4OvuLMugzbsqftTrQz80fuOO6/LoA37ZYCnsQb+mMtv3KcGeLhVgFxcS0Vjpse486c9tCMJcBMrkGjS+CTuQwO0INW+NKPSB233zPAk7n0DfGIlsnNYgfRO/yfuPECAI1YiO4c1Ge8s5JMRvqjiiKWZzkkMfDP9iTtfVNGudYAjXvhF48bHuHNHFWf4rNoZHzsD/wyOceeOKlq2dfZfFt3CiwN+6p3FXd4N0Jp9HIBxOx7iXc7jPjHAKQbvyjFu99XkIu6vBrjEDzz0YrvdW68XcX8xQKu2bLw/0NrAVy+/cecaE55iz0NijxJuDHy1kN+4c40JediJVIkNSJ9Nz+LOr/ZwA6MZpXi73Wuj37gzdEcRtmaUYUvGcy+/cWfojgJszSjDxSXPLeSHEYbuKMKFJk1CLi75bnoSd4bueLKEwztfUtGQ0UncGbqjGN9VteBLKszLSdwZuuP5bAD+pocmR+5ihKE7ynB4V4BjOw6mp3Fn6I5yHN4dx7Edn0aXcecv2SjG4d1tHNvxpX8z7jI3QC4O786KObbjy1xux/3NAE+1Zeed3Xb8wVtO3IcGKMbOu3OW7LbjaJgTdzHAs+2XAaqLeNwXJ+Q87ixDwikZv8+uzPKSDE5ML+LOMiQcY5nNVBIzkcGZ0UXcWYaEa3bMZpjIoL5+btzl3QBOyFh6Lxay2o5L73IRd5YhUR97M8+1YiKDK2/XcedlSDhoz50mbi2hjperuHNJFW7arQJci/iRHm6ZS1HcJwZwSMaV1UtRaoBbJtdx55Iq3MWX1TMhm+3IM7wVd/7YAXelXGoi7Si3kHNGmMvAdeSdtKPU5CruzGXgPvIeBGvSjiLDq7gzl4EGnuedUztqTmXECHMZ6OBx3kk7Sk2u485cBlp4mnfSjgqG13FnLgM9Nv7tvUcpaUe5udyMO+/LQI3MrwcjY64soZK323HnfRkoslt586TYiocGUNHL7bjzvgxU2Sc+DN/DNS8/oqq5VIn72ACu6/zwnVE76hjnxp3/MUGbTk9nmMegnn6luMvMAArs024+KhYlHNpRz0yqxf3VADpsu3d859CO+l4rxr3Hqjv0SLu0G/nBpB13WPTy4s4TBNBs15HlmYj1GNxnIlXjPjCAKtu19r6HjGNwt0Fe3Fl1RwdsFI/fw9XGAPeaS/W4jwygj86+U3b80ahG3HsGUElb3yk7/q6XF3c+qaJT9MzfozVzdvzdRPLizidVdM0ucX8/Mk7YjUEjBrlx55MqOmi/cfgAH6037LOjIXMpiDu3VNFJu3QZBq4JlylHdjTotSju3FJFZ20ThwIfLpOtAZq06OXHnU+q6LhtsoqCZ4tWhB0PMJHiuPPwLzput1nHwbPElhk7HqRfEnce/oUPtmnrhY/XKQd2PM5MiuLONiR8sk1tHAWPFy3thk+neLBBYdzZhoR/sgcm/mNpU64noQ1zKYw725Dw1TazNo6DhoTx0iYZp3W05/WuuAvbkPBFliV2HcdhcI8ojq1NM0braN1C7ov72AC+2WZZaq1dxwc5c5v4v6U9yDLO6XimcVncucgEAOosemVx5yITAKgzkbK4c5EJANTpF8edozsAKDSRIkY4ugOAQv0/xF2mBgDgoKlUiDtvEACALoNKcef5MADQZCbFjHB0BwB1BqVx5+gOANrMpIQRju4AoM2gPO4c3QFAmZmUMcLRHQCUGVSIO0d3ANBlJhXjzjVVANCjXznuvDADAFpMpJwRju4AoEq/Utw5ugOAJhOpFXd+yQQACix6NePO31QBwH1jqcIIR3cA0GPRazDu8o+9u81pI4bCMOp3SggE8rH/1VaqRIsKgYzHQ+5I5yzi+WFfX+8bAAXsMzLuOTcA7u6cWXG3hABgC3bz4m4JAcAGHDMr7l4yAWzBr+Fxz6EBcFeHzIq7cUiADbhM8+JuHBJgA/ZZI+45NQDu5pSZcTcOCVDfrifutkMClPaSmXF3pwpQ3mWaG3d3qgDl7dMRd+9UAUo7Zs24PzQA7uChO+6+7QCo6jm9cbf7F6Cqc7ribtgdoLJdd9wtEAOo6pD14z45mAH4UeepJ+4OZgBK2+Un4p7XBsAfNQ9lkpY4mAEo7Dz1xd3BDEBhu/TG3cQMQFWH9GiJgxmAss5Tb9wdzACUtUsWxd2OGYB6ntOn5T0fqgJUckqnlk4PfmUCWNnlIZ1aej01AFb1lF4tbzxUBajlNd1a/jEPCXCzslOQH+NuHhLgZlWnID+Ju3lIgNvUnYJcHvccGwCrOGaJliUm85AAq7hMWaLlA8fuAN+ofeB+Je6O3QG+Uv3A/WrcTbsDXFd6wv3ruJt2B7im9IT7N3G3ZAbgc4VXygyMe/YNgIH2WazlOp/uAXxU9GO9OXH3lgngP8VfL90Yd5eqAO9s4TL1pri7VAX4axOXqePinscGwACP6dAXd/8yAbwp+/fSOnHPSwNgoZcM0jLKqQGwyCmjtIwyqTvAIqcp3frjbmQGYAODMrPjru4A22h7WuawZQag8EaZ/rirO0D9tnfE3UAkQOEhyP64qztA7banpYcNkQAFNkGOj7txd4ACA+6j467uAHXbnpZe6g5Qte1p6ecxE0CBx0vj467uAAXaPj7u6g5QoO3j467uAAXaPj7u6g5QoO3j467uAAXaPj7u6g5QoO3j467uAK39bu9OkOO2oQCIojnEcBsOef/TxpWyEkvW2K4oxNrvEF2/PkAwU9uvjLt1l6Rcbb807tZdkjK1/dq4W3dJytP2i+Nu3SUpS9uvjrt1l6S8bSdwsfEIkqR3niMXC1zEF4Al6YXnwNUCV7HukpSr7QSuN/hfVUn6xz5wvUAKW5Ak/W0jhcDVrLskpW47gTSmIEkKE2kEUrDukvTNOZFIIAk/Z5KkcI6kEkhm9EqkpK49R5IJJOKFd0mdew6kE0jGSzOSeraRUiCpOUhSl2aSCqR191hVUofOO2kFUvKVSEldOkYSCyTlSzOSOrQPpBZIbw2S1JGV9AIZTC7eJXXjnMggkJyLd0kdOUZyCGQxPIIkdeAxkEUgkyVIUvMWMgnkEl28S2rcGcklkId3IiU1bx/IJpCLqxlJbVvIKJBT9NaMpEYdkZwC+XhrRlKzHgNZBTKbPVeV1JxzJrNAVv6gSVKDniO5BTLzXFVSaxbyC+TmuaqkphyRAgRKMPhQpKRGrAMlCBTA4V1SI45IGQIlcHiX1IR1oBCBMji8S6reESlGoBAO75Iqtw6UI1AMh3dJFTsiJQkUxDvvkmq1UJZAYW4+BCypOvuNwgTK4u+zJVXnnChLmXH3YFVSVdaBwhQadxjdzUiqxD5SnGLj7m5GUh3OiTKVGncG781IKt4yUKhi4w43/9IkqWiPG8UqOO4Q/Y+HpGI9IwUrOu4w+cmqpCIdpS7bAcqPOyyerEoqzrlQuOLjzmDeJZXlLPccFQCqiDvctiBJxdgKPkcFgEribt4l/QnT/qaauJt3Sb9j2v9VUdzNu6RfMe0/qiru5l3SK6b9vcribt4lfca0f1Rd3OG2ejFSUnLnWlfa64u7994lvee99p9VGXcfJZD0o+4fGvhErXGH6N88JCWxF/082Av1xh1um9sZSRc7KztFfVNz3GGY3c5IutAx17dqB4C64w7c/Z+HpIs87tSs7rjDbXF8l/S/O5Zq9zEADcTd8V2SQ/tHbcTd7bskN+3vtBJ3YPTLVUlfd64jbWgl7sDdh2ckfcnWwDoGgLbiDsPk+l3Sf/SYmljHANBa3O27JMsONBh3+y7JsrcZd2CYfJxA0p84txbL3mzcAeLq/UhJv3Sslb4K9jtNxx24zS5oJL3wmGv/CPW11uMOcF+fQZLeea4NXXr8RA9xB4Zpc0Mj6buj1S37DzqJO8DNwEsKxzY1vYt501HcAYb76g+cpG7t672HiR2AzuIOQJwd4aXeHNvc7rWYz/QYd4AhLg+PWaUuPB9L7GlgB4Be4w4AcVp3P3WSmnXu69TdvP5d33EHYIjzsrunkZpy7Mvc57j+xri/GeO87J62SpXb92WOrTzI/hXG/aMY52XdHeWlmhz7vi5z7HgF8xPj/toY431Zlm3/xsNXqSjP/ZttWZZ7dE5/5S/eUHMK4fY4eAAAAABJRU5ErkJggg==;" vertex="1" parent="1">
          <mxGeometry x="45" y="1790" width="80" height="80" as="geometry" />
        </mxCell>
        <mxCell id="9imsYksPvWUquA6H1-_u-56" value="Amazon S3" style="sketch=0;outlineConnect=0;fontColor=#232F3E;gradientColor=none;strokeColor=#ffffff;fillColor=#232F3E;dashed=0;verticalLabelPosition=middle;verticalAlign=bottom;align=center;html=1;whiteSpace=wrap;fontSize=10;fontStyle=1;spacing=3;shape=mxgraph.aws4.productIcon;prIcon=mxgraph.aws4.s3;" vertex="1" parent="1">
          <mxGeometry x="40" y="1919" width="80" height="100" as="geometry" />
        </mxCell>
        <mxCell id="9imsYksPvWUquA6H1-_u-65" style="edgeStyle=orthogonalEdgeStyle;rounded=0;orthogonalLoop=1;jettySize=auto;html=1;entryX=1;entryY=0.5;entryDx=0;entryDy=0;" edge="1" parent="1" source="9imsYksPvWUquA6H1-_u-64" target="9imsYksPvWUquA6H1-_u-3">
          <mxGeometry relative="1" as="geometry">
            <Array as="points">
              <mxPoint x="490" y="380" />
            </Array>
          </mxGeometry>
        </mxCell>
        <mxCell id="9imsYksPvWUquA6H1-_u-66" style="edgeStyle=orthogonalEdgeStyle;rounded=0;orthogonalLoop=1;jettySize=auto;html=1;entryX=1;entryY=0.5;entryDx=0;entryDy=0;" edge="1" parent="1" target="9imsYksPvWUquA6H1-_u-18">
          <mxGeometry relative="1" as="geometry">
            <mxPoint x="820" y="1330" as="sourcePoint" />
            <Array as="points" />
          </mxGeometry>
        </mxCell>
        <mxCell id="9imsYksPvWUquA6H1-_u-67" style="edgeStyle=orthogonalEdgeStyle;rounded=0;orthogonalLoop=1;jettySize=auto;html=1;entryX=1;entryY=0.5;entryDx=0;entryDy=0;" edge="1" parent="1" source="9imsYksPvWUquA6H1-_u-64" target="9imsYksPvWUquA6H1-_u-33">
          <mxGeometry relative="1" as="geometry">
            <Array as="points">
              <mxPoint x="718" y="2000" />
            </Array>
          </mxGeometry>
        </mxCell>
        <mxCell id="9imsYksPvWUquA6H1-_u-68" style="edgeStyle=orthogonalEdgeStyle;rounded=0;orthogonalLoop=1;jettySize=auto;html=1;entryX=1;entryY=0.5;entryDx=0;entryDy=0;" edge="1" parent="1" source="9imsYksPvWUquA6H1-_u-64" target="9imsYksPvWUquA6H1-_u-45">
          <mxGeometry relative="1" as="geometry">
            <Array as="points">
              <mxPoint x="718" y="2230" />
            </Array>
          </mxGeometry>
        </mxCell>
        <mxCell id="9imsYksPvWUquA6H1-_u-64" value="&lt;font style=&quot;font-size: 14px;&quot;&gt;&lt;b&gt;API GATEWAY&lt;/b&gt;&lt;/font&gt;" style="rounded=0;whiteSpace=wrap;html=1;rotation=270;" vertex="1" parent="1">
          <mxGeometry x="-110" y="1230" width="2020" height="150" as="geometry" />
        </mxCell>
        <mxCell id="9imsYksPvWUquA6H1-_u-70" style="edgeStyle=orthogonalEdgeStyle;rounded=0;orthogonalLoop=1;jettySize=auto;html=1;entryX=0.486;entryY=0.989;entryDx=0;entryDy=0;entryPerimeter=0;" edge="1" parent="1" source="9imsYksPvWUquA6H1-_u-69" target="9imsYksPvWUquA6H1-_u-64">
          <mxGeometry relative="1" as="geometry" />
        </mxCell>
        <mxCell id="9imsYksPvWUquA6H1-_u-69" value="&lt;font style=&quot;font-size: 14px;&quot;&gt;Frontend App&lt;/font&gt;" style="points=[[0.35,0,0],[0.98,0.51,0],[1,0.71,0],[0.67,1,0],[0,0.795,0],[0,0.65,0]];verticalLabelPosition=bottom;sketch=0;html=1;verticalAlign=top;aspect=fixed;align=center;pointerEvents=1;shape=mxgraph.cisco19.user;fillColor=#005073;strokeColor=none;" vertex="1" parent="1">
          <mxGeometry x="1100" y="1269" width="130" height="130" as="geometry" />
        </mxCell>
      </root>
    </mxGraphModel>
  </diagram>
</mxfile>
